<?xml version="1.0" encoding="UTF-8" standalone="no"?>
<!DOCTYPE svg PUBLIC "-//W3C//DTD SVG 1.1//EN"
 "http://www.w3.org/Graphics/SVG/1.1/DTD/svg11.dtd">
<!-- Generated by graphviz version 2.40.1 (20161225.0304)
 -->
<!-- Title: %0 Pages: 1 -->
<svg width="150pt" height="403pt"
 viewBox="0.00 0.00 150.00 403.00" xmlns="http://www.w3.org/2000/svg" xmlns:xlink="http://www.w3.org/1999/xlink">
<g id="graph0" class="graph" transform="scale(1 1) rotate(0) translate(4 399)">
<title>%0</title>
<g id="a_graph0"><a xlink:title="Data Model">
<polygon fill="#ffffff" stroke="transparent" points="-4,4 -4,-399 146,-399 146,4 -4,4"/>
</a>
</g>
<!-- mip_xs -->
<g id="mip_xs" class="node">
<title>mip_xs</title>
<polygon fill="#da4a20" stroke="transparent" points="1,-373.5 1,-393.5 141,-393.5 141,-373.5 1,-373.5"/>
<text text-anchor="start" x="50.3871" y="-378.9" font-family="Times,serif" font-size="14.00" fill="#ffffff">mip_xs</text>
<polygon fill="#f2bfb0" stroke="transparent" points="1,-360.5 1,-373.5 141,-373.5 141,-360.5 1,-360.5"/>
<text text-anchor="start" x="24.2268" y="-364.3" font-family="Times,serif" font-size="8.00" fill="#000000">FEMA MIP via MCAT&#45;RAS</text>
<polygon fill="#f7dad2" stroke="transparent" points="1,-340.5 1,-360.5 141,-360.5 141,-340.5 1,-340.5"/>
<text text-anchor="start" x="3" y="-345.9" font-family="Times,serif" font-size="14.00" fill="#444444">Ym</text>
<polygon fill="#f7dad2" stroke="transparent" points="1,-320.5 1,-340.5 141,-340.5 141,-320.5 1,-320.5"/>
<text text-anchor="start" x="3" y="-325.9" font-family="Times,serif" font-size="14.00" fill="#444444">TW</text>
<polygon fill="#f7dad2" stroke="transparent" points="1,-300.5 1,-320.5 141,-320.5 141,-300.5 1,-300.5"/>
<text text-anchor="start" x="3" y="-305.9" font-family="Times,serif" font-size="14.00" fill="#444444">flowpath_id</text>
<polygon fill="#f7dad2" stroke="transparent" points="1,-280.5 1,-300.5 141,-300.5 141,-280.5 1,-280.5"/>
<text text-anchor="start" x="3" y="-285.9" font-family="Times,serif" font-size="14.00" fill="#444444">river_station</text>
<polygon fill="#f7dad2" stroke="transparent" points="1,-260.5 1,-280.5 141,-280.5 141,-260.5 1,-260.5"/>
<text text-anchor="start" x="3" y="-265.9" font-family="Times,serif" font-size="14.00" fill="#444444">model</text>
<polygon fill="#f7dad2" stroke="transparent" points="1,-240.5 1,-260.5 141,-260.5 141,-240.5 1,-240.5"/>
<text text-anchor="start" x="3" y="-245.9" font-family="Times,serif" font-size="14.00" fill="#444444">A</text>
<polygon fill="#f7dad2" stroke="transparent" points="1,-220.5 1,-240.5 141,-240.5 141,-220.5 1,-220.5"/>
<text text-anchor="start" x="3" y="-225.9" font-family="Times,serif" font-size="14.00" fill="#444444">r</text>
<polygon fill="#f7dad2" stroke="transparent" points="1,-200.5 1,-220.5 141,-220.5 141,-200.5 1,-200.5"/>
<text text-anchor="start" x="3" y="-205.9" font-family="Times,serif" font-size="14.00" fill="#444444">domain</text>
<polygon fill="#f7dad2" stroke="transparent" points="1,-180.5 1,-200.5 141,-200.5 141,-180.5 1,-180.5"/>
<text text-anchor="start" x="3" y="-185.9" font-family="Times,serif" font-size="14.00" fill="#444444">river_reach_rs</text>
<polygon fill="#f7dad2" stroke="transparent" points="1,-160.5 1,-180.5 141,-180.5 141,-160.5 1,-160.5"/>
<text text-anchor="start" x="3" y="-165.9" font-family="Times,serif" font-size="14.00" fill="#444444">source_river</text>
<polygon fill="#f7dad2" stroke="transparent" points="1,-140.5 1,-160.5 141,-160.5 141,-140.5 1,-140.5"/>
<text text-anchor="start" x="3" y="-145.9" font-family="Times,serif" font-size="14.00" fill="#444444">source_reach</text>
<polygon fill="#f7dad2" stroke="transparent" points="1,-120.5 1,-140.5 141,-140.5 141,-120.5 1,-120.5"/>
<text text-anchor="start" x="3" y="-125.9" font-family="Times,serif" font-size="14.00" fill="#444444">source_river_station</text>
<polygon fill="#f7dad2" stroke="transparent" points="1,-100.5 1,-120.5 141,-120.5 141,-100.5 1,-100.5"/>
<text text-anchor="start" x="2.5638" y="-105.9" font-family="Times,serif" font-size="14.00" fill="#444444">station_elevation_points</text>
<polygon fill="#f7dad2" stroke="transparent" points="1,-80.5 1,-100.5 141,-100.5 141,-80.5 1,-80.5"/>
<text text-anchor="start" x="3" y="-85.9" font-family="Times,serif" font-size="14.00" fill="#444444">bank_stations</text>
<polygon fill="#f7dad2" stroke="transparent" points="1,-60.5 1,-80.5 141,-80.5 141,-60.5 1,-60.5"/>
<text text-anchor="start" x="3" y="-65.9" font-family="Times,serif" font-size="14.00" fill="#444444">metdata_units</text>
<polygon fill="#f7dad2" stroke="transparent" points="1,-40.5 1,-60.5 141,-60.5 141,-40.5 1,-40.5"/>
<text text-anchor="start" x="3" y="-45.9" font-family="Times,serif" font-size="14.00" fill="#444444">epsg</text>
<polygon fill="#f7dad2" stroke="transparent" points="1,-20.5 1,-40.5 141,-40.5 141,-20.5 1,-20.5"/>
<text text-anchor="start" x="3" y="-25.9" font-family="Times,serif" font-size="14.00" fill="#444444">crs_units</text>
<polygon fill="#f7dad2" stroke="transparent" points="1,-.5 1,-20.5 141,-20.5 141,-.5 1,-.5"/>
<text text-anchor="start" x="3" y="-5.9" font-family="Times,serif" font-size="14.00" fill="#444444">geom</text>
<polygon fill="none" stroke="#913115" stroke-opacity="0.666667" points="0,0 0,-395 142,-395 142,0 0,0"/>
</g>
</g>
</svg>

