<?xml version="1.0" encoding="UTF-8" standalone="no"?>
<!DOCTYPE svg PUBLIC "-//W3C//DTD SVG 1.1//EN"
 "http://www.w3.org/Graphics/SVG/1.1/DTD/svg11.dtd">
<!-- Generated by graphviz version 2.40.1 (20161225.0304)
 -->
<!-- Title: %0 Pages: 1 -->
<svg width="1544pt" height="721pt"
 viewBox="0.00 0.00 1544.00 721.37" xmlns="http://www.w3.org/2000/svg" xmlns:xlink="http://www.w3.org/1999/xlink">
<g id="graph0" class="graph" transform="scale(1 1) rotate(0) translate(4 717.3656)">
<title>%0</title>
<g id="a_graph0"><a xlink:title="Data Model">
<polygon fill="#ffffff" stroke="transparent" points="-4,4 -4,-717.3656 1540,-717.3656 1540,4 -4,4"/>
</a>
</g>
<!-- accounting.csv -->
<g id="accounting.csv" class="node">
<title>accounting.csv</title>
<polygon fill="#da7620" stroke="transparent" points="131.5,-677.5 131.5,-697.5 292.5,-697.5 292.5,-677.5 131.5,-677.5"/>
<text text-anchor="start" x="170.2079" y="-682.9" font-family="Times,serif" font-size="14.00" fill="#ffffff">accounting.csv</text>
<polygon fill="#f2cfb0" stroke="transparent" points="131.5,-664.5 131.5,-677.5 292.5,-677.5 292.5,-664.5 131.5,-664.5"/>
<text text-anchor="start" x="133.4672" y="-668.3" font-family="Times,serif" font-size="8.00" fill="#000000">A rollup catalog of all the models in the database</text>
<polygon fill="#f7e3d2" stroke="transparent" points="131.5,-644.5 131.5,-664.5 292.5,-664.5 292.5,-644.5 131.5,-644.5"/>
<text text-anchor="start" x="133.5" y="-649.9" font-family="Times,serif" font-size="14.00" fill="#444444">nhdplus_comid</text>
<polygon fill="#f7e3d2" stroke="transparent" points="131.5,-624.5 131.5,-644.5 292.5,-644.5 292.5,-624.5 131.5,-624.5"/>
<text text-anchor="start" x="133.5" y="-629.9" font-family="Times,serif" font-size="14.00" fill="#444444">model_name</text>
<polygon fill="#f7e3d2" stroke="transparent" points="131.5,-604.5 131.5,-624.5 292.5,-624.5 292.5,-604.5 131.5,-604.5"/>
<text text-anchor="start" x="133.5" y="-609.9" font-family="Times,serif" font-size="14.00" fill="#444444">g_file</text>
<polygon fill="#f7e3d2" stroke="transparent" points="131.5,-584.5 131.5,-604.5 292.5,-604.5 292.5,-584.5 131.5,-584.5"/>
<text text-anchor="start" x="133.5" y="-589.9" font-family="Times,serif" font-size="14.00" fill="#444444">last_modified</text>
<polygon fill="#f7e3d2" stroke="transparent" points="131.5,-564.5 131.5,-584.5 292.5,-584.5 292.5,-564.5 131.5,-564.5"/>
<text text-anchor="start" x="133.5" y="-569.9" font-family="Times,serif" font-size="14.00" fill="#444444">source</text>
<polygon fill="#f7e3d2" stroke="transparent" points="131.5,-544.5 131.5,-564.5 292.5,-564.5 292.5,-544.5 131.5,-544.5"/>
<text text-anchor="start" x="133.5" y="-549.9" font-family="Times,serif" font-size="14.00" fill="#444444">units</text>
<polygon fill="#f7e3d2" stroke="transparent" points="131.5,-524.5 131.5,-544.5 292.5,-544.5 292.5,-524.5 131.5,-524.5"/>
<text text-anchor="start" x="133.5" y="-529.9" font-family="Times,serif" font-size="14.00" fill="#444444">crs</text>
<polygon fill="#f7e3d2" stroke="transparent" points="131.5,-504.5 131.5,-524.5 292.5,-524.5 292.5,-504.5 131.5,-504.5"/>
<text text-anchor="start" x="133.5" y="-509.9" font-family="Times,serif" font-size="14.00" fill="#444444">initial_scrape_name</text>
<polygon fill="#f7e3d2" stroke="transparent" points="131.5,-484.5 131.5,-504.5 292.5,-504.5 292.5,-484.5 131.5,-484.5"/>
<text text-anchor="start" x="133.5" y="-490.9" font-family="Times,serif" font-style="italic" font-size="14.00" fill="#444444">final_name_key</text>
<polygon fill="#f7e3d2" stroke="transparent" points="131.5,-464.5 131.5,-484.5 292.5,-484.5 292.5,-464.5 131.5,-464.5"/>
<text text-anchor="start" x="133.5" y="-469.9" font-family="Times,serif" font-size="14.00" fill="#444444">notes</text>
<polygon fill="none" stroke="#914e15" stroke-opacity="0.666667" points="130,-464 130,-699 293,-699 293,-464 130,-464"/>
</g>
<!-- flowlines -->
<g id="flowlines" class="node">
<title>flowlines</title>
<polygon fill="#196789" stroke="transparent" points="801,-460.5 801,-480.5 1073,-480.5 1073,-460.5 801,-460.5"/>
<text text-anchor="start" x="910.9509" y="-465.9" font-family="Times,serif" font-size="14.00" fill="#ffffff">flowlines</text>
<polygon fill="#aec9d5" stroke="transparent" points="801,-447.5 801,-460.5 1073,-460.5 1073,-447.5 801,-447.5"/>
<text text-anchor="start" x="802.508" y="-451.3" font-family="Times,serif" font-size="8.00" fill="#000000">The Hydrofabric3D data model off which the representation is generated/referenced</text>
<polygon fill="#d1e0e7" stroke="transparent" points="801,-427.5 801,-447.5 1073,-447.5 1073,-427.5 801,-427.5"/>
<text text-anchor="start" x="803" y="-433.9" font-family="Times,serif" font-style="italic" font-size="14.00" fill="#444444">hy_id</text>
<polygon fill="#d1e0e7" stroke="transparent" points="801,-407.5 801,-427.5 1073,-427.5 1073,-407.5 801,-407.5"/>
<text text-anchor="start" x="803" y="-412.9" font-family="Times,serif" font-size="14.00" fill="#444444">geometry</text>
<polygon fill="none" stroke="#10445b" stroke-opacity="0.666667" points="800,-407 800,-482 1074,-482 1074,-407 800,-407"/>
</g>
<!-- accounting.csv&#45;&gt;flowlines -->
<g id="accounting.csv_1" class="edge">
<title>accounting.csv:nhdplus_comid&#45;&gt;flowlines:hy_id</title>
<path fill="none" stroke="#555555" stroke-dasharray="5,2" d="M292.5,-654.5C502.0574,-654.5 604.0335,-787.87 764,-652.5 835.1237,-592.3122 714.1892,-449.2666 790.6685,-438.183"/>
<polygon fill="#555555" stroke="#555555" points="791.2527,-441.6522 801,-437.5 790.7909,-434.6674 791.2527,-441.6522"/>
</g>
<!-- mip_xs -->
<g id="mip_xs" class="node">
<title>mip_xs</title>
<polygon fill="#da4a20" stroke="transparent" points="552.5,-621.5 552.5,-641.5 763.5,-641.5 763.5,-621.5 552.5,-621.5"/>
<text text-anchor="start" x="637.3871" y="-626.9" font-family="Times,serif" font-size="14.00" fill="#ffffff">mip_xs</text>
<polygon fill="#f2bfb0" stroke="transparent" points="552.5,-608.5 552.5,-621.5 763.5,-621.5 763.5,-608.5 552.5,-608.5"/>
<text text-anchor="start" x="554.4596" y="-612.3" font-family="Times,serif" font-size="8.00" fill="#000000">HEC&#45;RAS Cross sections from the FEMA MIP via MCAT&#45;RAS</text>
<polygon fill="#f7dad2" stroke="transparent" points="552.5,-588.5 552.5,-608.5 763.5,-608.5 763.5,-588.5 552.5,-588.5"/>
<text text-anchor="start" x="554.5" y="-593.9" font-family="Times,serif" font-size="14.00" fill="#444444">Ym</text>
<polygon fill="#f7dad2" stroke="transparent" points="552.5,-568.5 552.5,-588.5 763.5,-588.5 763.5,-568.5 552.5,-568.5"/>
<text text-anchor="start" x="554.5" y="-573.9" font-family="Times,serif" font-size="14.00" fill="#444444">TW</text>
<polygon fill="#f7dad2" stroke="transparent" points="552.5,-548.5 552.5,-568.5 763.5,-568.5 763.5,-548.5 552.5,-548.5"/>
<text text-anchor="start" x="554.5" y="-553.9" font-family="Times,serif" font-size="14.00" fill="#444444">flowpath_id</text>
<polygon fill="#f7dad2" stroke="transparent" points="552.5,-528.5 552.5,-548.5 763.5,-548.5 763.5,-528.5 552.5,-528.5"/>
<text text-anchor="start" x="554.5" y="-533.9" font-family="Times,serif" font-size="14.00" fill="#444444">river_station</text>
<polygon fill="#f7dad2" stroke="transparent" points="552.5,-508.5 552.5,-528.5 763.5,-528.5 763.5,-508.5 552.5,-508.5"/>
<text text-anchor="start" x="554.5" y="-513.9" font-family="Times,serif" font-size="14.00" fill="#444444">model</text>
<polygon fill="#f7dad2" stroke="transparent" points="552.5,-488.5 552.5,-508.5 763.5,-508.5 763.5,-488.5 552.5,-488.5"/>
<text text-anchor="start" x="554.5" y="-493.9" font-family="Times,serif" font-size="14.00" fill="#444444">A</text>
<polygon fill="#f7dad2" stroke="transparent" points="552.5,-468.5 552.5,-488.5 763.5,-488.5 763.5,-468.5 552.5,-468.5"/>
<text text-anchor="start" x="554.5" y="-473.9" font-family="Times,serif" font-size="14.00" fill="#444444">r</text>
<polygon fill="#f7dad2" stroke="transparent" points="552.5,-448.5 552.5,-468.5 763.5,-468.5 763.5,-448.5 552.5,-448.5"/>
<text text-anchor="start" x="554.5" y="-454.9" font-family="Times,serif" font-style="italic" font-size="14.00" fill="#444444">domain</text>
<polygon fill="#f7dad2" stroke="transparent" points="552.5,-428.5 552.5,-448.5 763.5,-448.5 763.5,-428.5 552.5,-428.5"/>
<text text-anchor="start" x="554.5" y="-433.9" font-family="Times,serif" font-size="14.00" fill="#444444">river_reach_rs</text>
<polygon fill="#f7dad2" stroke="transparent" points="552.5,-408.5 552.5,-428.5 763.5,-428.5 763.5,-408.5 552.5,-408.5"/>
<text text-anchor="start" x="554.5" y="-414.9" font-family="Times,serif" font-style="italic" font-size="14.00" fill="#444444">source_river</text>
<polygon fill="#f7dad2" stroke="transparent" points="552.5,-388.5 552.5,-408.5 763.5,-408.5 763.5,-388.5 552.5,-388.5"/>
<text text-anchor="start" x="554.5" y="-393.9" font-family="Times,serif" font-size="14.00" fill="#444444">source_reach</text>
<polygon fill="#f7dad2" stroke="transparent" points="552.5,-368.5 552.5,-388.5 763.5,-388.5 763.5,-368.5 552.5,-368.5"/>
<text text-anchor="start" x="554.5" y="-374.9" font-family="Times,serif" font-style="italic" font-size="14.00" fill="#444444">source_river_station</text>
<polygon fill="#f7dad2" stroke="transparent" points="552.5,-348.5 552.5,-368.5 763.5,-368.5 763.5,-348.5 552.5,-348.5"/>
<text text-anchor="start" x="554.5" y="-354.9" font-family="Times,serif" font-style="italic" font-size="14.00" fill="#444444">station_elevation_points</text>
<polygon fill="#f7dad2" stroke="transparent" points="552.5,-328.5 552.5,-348.5 763.5,-348.5 763.5,-328.5 552.5,-328.5"/>
<text text-anchor="start" x="554.5" y="-333.9" font-family="Times,serif" font-size="14.00" fill="#444444">bank_stations</text>
<polygon fill="#f7dad2" stroke="transparent" points="552.5,-308.5 552.5,-328.5 763.5,-328.5 763.5,-308.5 552.5,-308.5"/>
<text text-anchor="start" x="554.5" y="-313.9" font-family="Times,serif" font-size="14.00" fill="#444444">metdata_units</text>
<polygon fill="#f7dad2" stroke="transparent" points="552.5,-288.5 552.5,-308.5 763.5,-308.5 763.5,-288.5 552.5,-288.5"/>
<text text-anchor="start" x="554.5" y="-293.9" font-family="Times,serif" font-size="14.00" fill="#444444">epsg</text>
<polygon fill="#f7dad2" stroke="transparent" points="552.5,-268.5 552.5,-288.5 763.5,-288.5 763.5,-268.5 552.5,-268.5"/>
<text text-anchor="start" x="554.5" y="-273.9" font-family="Times,serif" font-size="14.00" fill="#444444">crs_units</text>
<polygon fill="#f7dad2" stroke="transparent" points="552.5,-248.5 552.5,-268.5 763.5,-268.5 763.5,-248.5 552.5,-248.5"/>
<text text-anchor="start" x="554.5" y="-253.9" font-family="Times,serif" font-size="14.00" fill="#444444">geom</text>
<polygon fill="none" stroke="#913115" stroke-opacity="0.666667" points="551,-248 551,-643 764,-643 764,-248 551,-248"/>
</g>
<!-- accounting.csv&#45;&gt;mip_xs -->
<g id="accounting.csv_2" class="edge">
<title>accounting.csv:source&#45;&gt;mip_xs:domain</title>
<path fill="none" stroke="#555555" stroke-dasharray="5,2" d="M292.5,-574.5C415.5749,-574.5 425.4967,-464.757 542.3836,-458.7554"/>
<polygon fill="#555555" stroke="#555555" points="542.5916,-462.2514 552.5,-458.5 542.4148,-455.2536 542.5916,-462.2514"/>
</g>
<!-- cs_pts -->
<g id="cs_pts" class="node">
<title>cs_pts</title>
<polygon fill="#196789" stroke="transparent" points="1294.5,-312.5 1294.5,-332.5 1535.5,-332.5 1535.5,-312.5 1294.5,-312.5"/>
<text text-anchor="start" x="1397.5028" y="-317.9" font-family="Times,serif" font-size="14.00" fill="#ffffff">cs_pts</text>
<polygon fill="#aec9d5" stroke="transparent" points="1294.5,-299.5 1294.5,-312.5 1535.5,-312.5 1535.5,-299.5 1294.5,-299.5"/>
<text text-anchor="start" x="1296.486" y="-303.3" font-family="Times,serif" font-size="8.00" fill="#000000">The Hydrofabric3D data model for station/elevation profile represntations</text>
<polygon fill="#d1e0e7" stroke="transparent" points="1294.5,-279.5 1294.5,-299.5 1535.5,-299.5 1535.5,-279.5 1294.5,-279.5"/>
<text text-anchor="start" x="1296.5" y="-284.9" font-family="Times,serif" font-size="14.00" fill="#444444">hy_id</text>
<polygon fill="#d1e0e7" stroke="transparent" points="1294.5,-259.5 1294.5,-279.5 1535.5,-279.5 1535.5,-259.5 1294.5,-259.5"/>
<text text-anchor="start" x="1296.5" y="-265.9" font-family="Times,serif" font-style="italic" font-size="14.00" fill="#444444">cs_id</text>
<polygon fill="#d1e0e7" stroke="transparent" points="1294.5,-239.5 1294.5,-259.5 1535.5,-259.5 1535.5,-239.5 1294.5,-239.5"/>
<text text-anchor="start" x="1296.5" y="-244.9" font-family="Times,serif" font-size="14.00" fill="#444444">pt_id</text>
<polygon fill="#d1e0e7" stroke="transparent" points="1294.5,-219.5 1294.5,-239.5 1535.5,-239.5 1535.5,-219.5 1294.5,-219.5"/>
<text text-anchor="start" x="1296.5" y="-224.9" font-family="Times,serif" font-size="14.00" fill="#444444">pt_measure</text>
<polygon fill="#d1e0e7" stroke="transparent" points="1294.5,-199.5 1294.5,-219.5 1535.5,-219.5 1535.5,-199.5 1294.5,-199.5"/>
<text text-anchor="start" x="1296.5" y="-204.9" font-family="Times,serif" font-size="14.00" fill="#444444">relative_dist</text>
<polygon fill="#d1e0e7" stroke="transparent" points="1294.5,-179.5 1294.5,-199.5 1535.5,-199.5 1535.5,-179.5 1294.5,-179.5"/>
<text text-anchor="start" x="1296.5" y="-184.9" font-family="Times,serif" font-size="14.00" fill="#444444">X</text>
<polygon fill="#d1e0e7" stroke="transparent" points="1294.5,-159.5 1294.5,-179.5 1535.5,-179.5 1535.5,-159.5 1294.5,-159.5"/>
<text text-anchor="start" x="1296.5" y="-164.9" font-family="Times,serif" font-size="14.00" fill="#444444">Y</text>
<polygon fill="#d1e0e7" stroke="transparent" points="1294.5,-139.5 1294.5,-159.5 1535.5,-159.5 1535.5,-139.5 1294.5,-139.5"/>
<text text-anchor="start" x="1296.5" y="-144.9" font-family="Times,serif" font-size="14.00" fill="#444444">Z</text>
<polygon fill="#d1e0e7" stroke="transparent" points="1294.5,-119.5 1294.5,-139.5 1535.5,-139.5 1535.5,-119.5 1294.5,-119.5"/>
<text text-anchor="start" x="1296.5" y="-124.9" font-family="Times,serif" font-size="14.00" fill="#444444">Z_source</text>
<polygon fill="#d1e0e7" stroke="transparent" points="1294.5,-99.5 1294.5,-119.5 1535.5,-119.5 1535.5,-99.5 1294.5,-99.5"/>
<text text-anchor="start" x="1296.5" y="-104.9" font-family="Times,serif" font-size="14.00" fill="#444444">roughness</text>
<polygon fill="none" stroke="#10445b" stroke-opacity="0.666667" points="1293,-99 1293,-334 1536,-334 1536,-99 1293,-99"/>
</g>
<!-- transects -->
<g id="transects" class="node">
<title>transects</title>
<polygon fill="#196789" stroke="transparent" points="1111.5,-332.5 1111.5,-352.5 1256.5,-352.5 1256.5,-332.5 1111.5,-332.5"/>
<text text-anchor="start" x="1159.5126" y="-337.9" font-family="Times,serif" font-size="14.00" fill="#ffffff">transects</text>
<polygon fill="#aec9d5" stroke="transparent" points="1111.5,-319.5 1111.5,-332.5 1256.5,-332.5 1256.5,-319.5 1111.5,-319.5"/>
<text text-anchor="start" x="1113.0304" y="-323.3" font-family="Times,serif" font-size="8.00" fill="#000000">The Hydrofabric3D data model for transects</text>
<polygon fill="#d1e0e7" stroke="transparent" points="1111.5,-299.5 1111.5,-319.5 1256.5,-319.5 1256.5,-299.5 1111.5,-299.5"/>
<text text-anchor="start" x="1113.5" y="-305.9" font-family="Times,serif" font-style="italic" font-size="14.00" fill="#444444">hy_id</text>
<polygon fill="#d1e0e7" stroke="transparent" points="1111.5,-279.5 1111.5,-299.5 1256.5,-299.5 1256.5,-279.5 1111.5,-279.5"/>
<text text-anchor="start" x="1113.5" y="-284.9" font-family="Times,serif" font-size="14.00" fill="#444444">cs_source</text>
<polygon fill="#d1e0e7" stroke="transparent" points="1111.5,-259.5 1111.5,-279.5 1256.5,-279.5 1256.5,-259.5 1111.5,-259.5"/>
<text text-anchor="start" x="1113.5" y="-265.9" font-family="Times,serif" font-style="italic" font-size="14.00" fill="#444444">cs_id</text>
<polygon fill="#d1e0e7" stroke="transparent" points="1111.5,-239.5 1111.5,-259.5 1256.5,-259.5 1256.5,-239.5 1111.5,-239.5"/>
<text text-anchor="start" x="1113.5" y="-244.9" font-family="Times,serif" font-size="14.00" fill="#444444">cs_measure</text>
<polygon fill="#d1e0e7" stroke="transparent" points="1111.5,-219.5 1111.5,-239.5 1256.5,-239.5 1256.5,-219.5 1111.5,-219.5"/>
<text text-anchor="start" x="1113.5" y="-224.9" font-family="Times,serif" font-size="14.00" fill="#444444">cs_length</text>
<polygon fill="#d1e0e7" stroke="transparent" points="1111.5,-199.5 1111.5,-219.5 1256.5,-219.5 1256.5,-199.5 1111.5,-199.5"/>
<text text-anchor="start" x="1113.5" y="-205.9" font-family="Times,serif" font-style="italic" font-size="14.00" fill="#444444">geometry</text>
<polygon fill="none" stroke="#10445b" stroke-opacity="0.666667" points="1110,-199 1110,-354 1257,-354 1257,-199 1110,-199"/>
</g>
<!-- flowlines&#45;&gt;transects -->
<g id="flowlines_1" class="edge">
<title>flowlines:hy_id&#45;&gt;transects:hy_id</title>
<path fill="none" stroke="#555555" stroke-dasharray="5,2" d="M1073,-437.5C1128.4616,-437.5 1062.1439,-325.9355 1101.4317,-311.1184"/>
<polygon fill="#555555" stroke="#555555" points="1102.1822,-314.5428 1111.5,-309.5 1101.0712,-307.6315 1102.1822,-314.5428"/>
</g>
<!-- HEC_cs_pts -->
<g id="HEC_cs_pts" class="node">
<title>HEC_cs_pts</title>
<polygon fill="#179a54" stroke="transparent" points="369,-346.5 369,-366.5 475,-366.5 475,-346.5 369,-346.5"/>
<text text-anchor="start" x="387.0049" y="-351.9" font-family="Times,serif" font-size="14.00" fill="#ffffff">HEC_cs_pts</text>
<polygon fill="#addbc3" stroke="transparent" points="369,-333.5 369,-346.5 475,-346.5 475,-333.5 369,-333.5"/>
<text text-anchor="start" x="370.78" y="-337.3" font-family="Times,serif" font-size="8.00" fill="#000000">HEC&#45;RAS Cross Section Points</text>
<polygon fill="#d0eadc" stroke="transparent" points="369,-313.5 369,-333.5 475,-333.5 475,-313.5 369,-313.5"/>
<text text-anchor="start" x="371" y="-319.9" font-family="Times,serif" font-style="italic" font-size="14.00" fill="#444444">cs_id</text>
<polygon fill="#d0eadc" stroke="transparent" points="369,-293.5 369,-313.5 475,-313.5 475,-293.5 369,-293.5"/>
<text text-anchor="start" x="371" y="-298.9" font-family="Times,serif" font-size="14.00" fill="#444444">station</text>
<polygon fill="#d0eadc" stroke="transparent" points="369,-273.5 369,-293.5 475,-293.5 475,-273.5 369,-273.5"/>
<text text-anchor="start" x="371" y="-278.9" font-family="Times,serif" font-size="14.00" fill="#444444">elevation</text>
<polygon fill="#d0eadc" stroke="transparent" points="369,-253.5 369,-273.5 475,-273.5 475,-253.5 369,-253.5"/>
<text text-anchor="start" x="371" y="-258.9" font-family="Times,serif" font-size="14.00" fill="#444444">n</text>
<polygon fill="none" stroke="#0f6638" stroke-opacity="0.666667" points="368,-253 368,-368 476,-368 476,-253 368,-253"/>
</g>
<!-- HEC_cs_pts&#45;&gt;mip_xs -->
<g id="HEC_cs_pts_1" class="edge">
<title>HEC_cs_pts:cs_id&#45;&gt;mip_xs:station_elevation_points</title>
<path fill="none" stroke="#555555" stroke-dasharray="5,2" d="M475,-323.5C509.1033,-323.5 513.9903,-351.9978 542.3873,-357.5638"/>
<polygon fill="#555555" stroke="#555555" points="542.2199,-361.0632 552.5,-358.5 542.8652,-354.093 542.2199,-361.0632"/>
</g>
<!-- HECRAS_cross_sections -->
<g id="HECRAS_cross_sections" class="node">
<title>HECRAS_cross_sections</title>
<polygon fill="#179a54" stroke="transparent" points="138.5,-385.5 138.5,-405.5 285.5,-405.5 285.5,-385.5 138.5,-385.5"/>
<text text-anchor="start" x="140.4572" y="-390.9" font-family="Times,serif" font-size="14.00" fill="#ffffff">HECRAS_cross_sections</text>
<polygon fill="#addbc3" stroke="transparent" points="138.5,-372.5 138.5,-385.5 285.5,-385.5 285.5,-372.5 138.5,-372.5"/>
<text text-anchor="start" x="163.896" y="-376.3" font-family="Times,serif" font-size="8.00" fill="#000000">HEC&#45;RAS Cross section lines</text>
<polygon fill="#d0eadc" stroke="transparent" points="138.5,-352.5 138.5,-372.5 285.5,-372.5 285.5,-352.5 138.5,-352.5"/>
<text text-anchor="start" x="140.5" y="-358.9" font-family="Times,serif" font-style="italic" font-size="14.00" fill="#444444">name</text>
<polygon fill="#d0eadc" stroke="transparent" points="138.5,-332.5 138.5,-352.5 285.5,-352.5 285.5,-332.5 138.5,-332.5"/>
<text text-anchor="start" x="140.5" y="-337.9" font-family="Times,serif" font-size="14.00" fill="#444444">measure</text>
<polygon fill="#d0eadc" stroke="transparent" points="138.5,-312.5 138.5,-332.5 285.5,-332.5 285.5,-312.5 138.5,-312.5"/>
<text text-anchor="start" x="140.5" y="-317.9" font-family="Times,serif" font-size="14.00" fill="#444444">cs_id</text>
<polygon fill="#d0eadc" stroke="transparent" points="138.5,-292.5 138.5,-312.5 285.5,-312.5 285.5,-292.5 138.5,-292.5"/>
<text text-anchor="start" x="140.5" y="-297.9" font-family="Times,serif" font-size="14.00" fill="#444444">cs_length</text>
<polygon fill="#d0eadc" stroke="transparent" points="138.5,-272.5 138.5,-292.5 285.5,-292.5 285.5,-272.5 138.5,-272.5"/>
<text text-anchor="start" x="140.5" y="-277.9" font-family="Times,serif" font-size="14.00" fill="#444444">geometry</text>
<polygon fill="none" stroke="#0f6638" stroke-opacity="0.666667" points="137,-272 137,-407 286,-407 286,-272 137,-272"/>
</g>
<!-- HECRAS_cross_sections&#45;&gt;HEC_cs_pts -->
<g id="HECRAS_cross_sections_2" class="edge">
<title>HECRAS_cross_sections:cs_id&#45;&gt;HEC_cs_pts:cs_id</title>
<path fill="none" stroke="#555555" stroke-dasharray="5,2" d="M285.5,-322.5C318.9894,-322.5 329.8097,-323.3142 358.8715,-323.4733"/>
<polygon fill="#555555" stroke="#555555" points="358.9908,-326.9735 369,-323.5 359.0093,-319.9735 358.9908,-326.9735"/>
</g>
<!-- HECRAS_cross_sections&#45;&gt;mip_xs -->
<g id="HECRAS_cross_sections_3" class="edge">
<title>HECRAS_cross_sections:measure&#45;&gt;mip_xs:source_river_station</title>
<path fill="none" stroke="#555555" stroke-dasharray="5,2" d="M285.5,-342.5C310.3144,-342.5 305.6145,-369.2012 329,-377.5 419.3234,-409.553 450.9396,-380.6847 542.2726,-378.6152"/>
<polygon fill="#555555" stroke="#555555" points="542.5401,-382.1125 552.5,-378.5 542.4612,-375.113 542.5401,-382.1125"/>
</g>
<!-- point_database.parquet -->
<g id="point_database.parquet" class="node">
<title>point_database.parquet</title>
<polygon fill="#da7620" stroke="transparent" points="330,-213.5 330,-233.5 514,-233.5 514,-213.5 330,-213.5"/>
<text text-anchor="start" x="357.2724" y="-218.9" font-family="Times,serif" font-size="14.00" fill="#ffffff">point_database.parquet</text>
<polygon fill="#f2cfb0" stroke="transparent" points="330,-200.5 330,-213.5 514,-213.5 514,-200.5 330,-200.5"/>
<text text-anchor="start" x="331.7028" y="-204.3" font-family="Times,serif" font-size="8.00" fill="#000000">XYZ tables of each station/elevation across the database</text>
<polygon fill="#f7e3d2" stroke="transparent" points="330,-180.5 330,-200.5 514,-200.5 514,-180.5 330,-180.5"/>
<text text-anchor="start" x="332" y="-185.9" font-family="Times,serif" font-size="14.00" fill="#444444">xid</text>
<polygon fill="#f7e3d2" stroke="transparent" points="330,-160.5 330,-180.5 514,-180.5 514,-160.5 330,-160.5"/>
<text text-anchor="start" x="332" y="-165.9" font-family="Times,serif" font-size="14.00" fill="#444444">xid_length</text>
<polygon fill="#f7e3d2" stroke="transparent" points="330,-140.5 330,-160.5 514,-160.5 514,-140.5 330,-140.5"/>
<text text-anchor="start" x="332" y="-145.9" font-family="Times,serif" font-size="14.00" fill="#444444">xid_d</text>
<polygon fill="#f7e3d2" stroke="transparent" points="330,-120.5 330,-140.5 514,-140.5 514,-120.5 330,-120.5"/>
<text text-anchor="start" x="332" y="-125.9" font-family="Times,serif" font-size="14.00" fill="#444444">relative_dist</text>
<polygon fill="#f7e3d2" stroke="transparent" points="330,-100.5 330,-120.5 514,-120.5 514,-100.5 330,-100.5"/>
<text text-anchor="start" x="332" y="-105.9" font-family="Times,serif" font-size="14.00" fill="#444444">x</text>
<polygon fill="#f7e3d2" stroke="transparent" points="330,-80.5 330,-100.5 514,-100.5 514,-80.5 330,-80.5"/>
<text text-anchor="start" x="332" y="-85.9" font-family="Times,serif" font-size="14.00" fill="#444444">y</text>
<polygon fill="#f7e3d2" stroke="transparent" points="330,-60.5 330,-80.5 514,-80.5 514,-60.5 330,-60.5"/>
<text text-anchor="start" x="332" y="-65.9" font-family="Times,serif" font-size="14.00" fill="#444444">z</text>
<polygon fill="#f7e3d2" stroke="transparent" points="330,-40.5 330,-60.5 514,-60.5 514,-40.5 330,-40.5"/>
<text text-anchor="start" x="332" y="-45.9" font-family="Times,serif" font-size="14.00" fill="#444444">n</text>
<polygon fill="#f7e3d2" stroke="transparent" points="330,-20.5 330,-40.5 514,-40.5 514,-20.5 330,-20.5"/>
<text text-anchor="start" x="332" y="-25.9" font-family="Times,serif" font-size="14.00" fill="#444444">source</text>
<polygon fill="#f7e3d2" stroke="transparent" points="330,-.5 330,-20.5 514,-20.5 514,-.5 330,-.5"/>
<text text-anchor="start" x="332" y="-6.9" font-family="Times,serif" font-style="italic" font-size="14.00" fill="#444444">master_id</text>
<polygon fill="none" stroke="#914e15" stroke-opacity="0.666667" points="329,0 329,-235 515,-235 515,0 329,0"/>
</g>
<!-- HECRAS_cross_sections&#45;&gt;point_database.parquet -->
<g id="HECRAS_cross_sections_1" class="edge">
<title>HECRAS_cross_sections:geometry&#45;&gt;point_database.parquet:master_id</title>
<path fill="none" stroke="#555555" stroke-dasharray="5,2" d="M285.5,-282.5C404.2877,-282.5 219.3471,-26.7195 319.745,-11.2328"/>
<polygon fill="#555555" stroke="#555555" points="320.2749,-14.7039 330,-10.5 319.7759,-7.7217 320.2749,-14.7039"/>
</g>
<!-- HECRAS_river -->
<g id="HECRAS_river" class="node">
<title>HECRAS_river</title>
<polygon fill="#179a54" stroke="transparent" points="1,-458.5 1,-478.5 93,-478.5 93,-458.5 1,-458.5"/>
<text text-anchor="start" x="2.676" y="-463.9" font-family="Times,serif" font-size="14.00" fill="#ffffff">HECRAS_river</text>
<polygon fill="#addbc3" stroke="transparent" points="1,-445.5 1,-458.5 93,-458.5 93,-445.5 1,-445.5"/>
<text text-anchor="start" x="19.7848" y="-449.3" font-family="Times,serif" font-size="8.00" fill="#000000">HEC&#45;RAS rivers</text>
<polygon fill="#d0eadc" stroke="transparent" points="1,-425.5 1,-445.5 93,-445.5 93,-425.5 1,-425.5"/>
<text text-anchor="start" x="3" y="-430.9" font-family="Times,serif" font-size="14.00" fill="#444444">name</text>
<polygon fill="#d0eadc" stroke="transparent" points="1,-405.5 1,-425.5 93,-425.5 93,-405.5 1,-405.5"/>
<text text-anchor="start" x="3" y="-410.9" font-family="Times,serif" font-size="14.00" fill="#444444">geometry</text>
<polygon fill="none" stroke="#0f6638" stroke-opacity="0.666667" points="0,-405 0,-480 94,-480 94,-405 0,-405"/>
</g>
<!-- HECRAS_river&#45;&gt;accounting.csv -->
<g id="HECRAS_river_1" class="edge">
<title>HECRAS_river:name&#45;&gt;accounting.csv:final_name_key</title>
<path fill="none" stroke="#555555" stroke-dasharray="5,2" d="M93,-435.5C120.1527,-435.5 105.6185,-479.8688 121.6981,-491.6543"/>
<polygon fill="#555555" stroke="#555555" points="120.9207,-495.0731 131.5,-494.5 122.8724,-488.3506 120.9207,-495.0731"/>
</g>
<!-- HECRAS_river&#45;&gt;HECRAS_cross_sections -->
<g id="HECRAS_river_2" class="edge">
<title>HECRAS_river:name&#45;&gt;HECRAS_cross_sections:name</title>
<path fill="none" stroke="#555555" stroke-dasharray="5,2" d="M93,-435.5C127.1985,-435.5 106.0306,-377.0864 128.5502,-364.7648"/>
<polygon fill="#555555" stroke="#555555" points="129.5262,-368.1322 138.5,-362.5 127.9726,-361.3068 129.5262,-368.1322"/>
</g>
<!-- HECRAS_river&#45;&gt;mip_xs -->
<g id="HECRAS_river_3" class="edge">
<title>HECRAS_river:name&#45;&gt;mip_xs:source_river</title>
<path fill="none" stroke="#555555" stroke-dasharray="5,2" d="M93,-435.5C293.9692,-435.5 346.4098,-419.0598 542.4474,-418.5139"/>
<polygon fill="#555555" stroke="#555555" points="542.5049,-422.0139 552.5,-418.5 542.4951,-415.0139 542.5049,-422.0139"/>
</g>
<!-- mip_xs&#45;&gt;flowlines -->
<g id="mip_xs_1" class="edge">
<title>mip_xs:flowpath_id&#45;&gt;flowlines:hy_id</title>
<path fill="none" stroke="#555555" stroke-dasharray="5,2" d="M763.5,-558.5C815.8425,-558.5 754.6104,-453.9174 790.9815,-439.2105"/>
<polygon fill="#555555" stroke="#555555" points="791.7317,-442.6331 801,-437.5 790.5536,-435.733 791.7317,-442.6331"/>
</g>
<!-- mip_xs&#45;&gt;transects -->
<g id="mip_xs_2" class="edge">
<title>mip_xs:geom&#45;&gt;transects:geometry</title>
<path fill="none" stroke="#555555" stroke-dasharray="5,2" d="M763.5,-258.5C901.846,-258.5 943.9177,-283.5978 1074,-236.5 1089.3881,-230.9286 1091.0229,-217.0913 1101.4445,-211.6998"/>
<polygon fill="#555555" stroke="#555555" points="1102.4791,-215.0564 1111.5,-209.5 1100.983,-208.2181 1102.4791,-215.0564"/>
</g>
<!-- XS.fgb -->
<g id="XS.fgb" class="node">
<title>XS.fgb</title>
<polygon fill="#da7620" stroke="transparent" points="908,-170.5 908,-190.5 967,-190.5 967,-170.5 908,-170.5"/>
<text text-anchor="start" x="917.4751" y="-175.9" font-family="Times,serif" font-size="14.00" fill="#ffffff">XS.fgb</text>
<polygon fill="#f2cfb0" stroke="transparent" points="908,-157.5 908,-170.5 967,-170.5 967,-157.5 908,-157.5"/>
<text text-anchor="start" x="914.504" y="-161.3" font-family="Times,serif" font-size="8.00" fill="#000000">Cross sections</text>
<polygon fill="#f7e3d2" stroke="transparent" points="908,-137.5 908,-157.5 967,-157.5 967,-137.5 908,-137.5"/>
<text text-anchor="start" x="909.8969" y="-143.9" font-family="Times,serif" font-style="italic" font-size="14.00" fill="#444444">master_id</text>
<polygon fill="#f7e3d2" stroke="transparent" points="908,-117.5 908,-137.5 967,-137.5 967,-117.5 908,-117.5"/>
<text text-anchor="start" x="910" y="-123.9" font-family="Times,serif" font-style="italic" font-size="14.00" fill="#444444">geometry</text>
<polygon fill="none" stroke="#914e15" stroke-opacity="0.666667" points="906.5,-117 906.5,-192 967.5,-192 967.5,-117 906.5,-117"/>
</g>
<!-- point_database.parquet&#45;&gt;XS.fgb -->
<g id="point_database.parquet_1" class="edge">
<title>point_database.parquet:master_id&#45;&gt;XS.fgb:master_id</title>
<path fill="none" stroke="#555555" stroke-dasharray="5,2" d="M514,-10.5C695.9552,-10.5 721.6877,-142.4632 897.8456,-147.3603"/>
<polygon fill="#555555" stroke="#555555" points="897.9527,-150.862 908,-147.5 898.0491,-143.8626 897.9527,-150.862"/>
</g>
<!-- reference_hf_flowpath -->
<g id="reference_hf_flowpath" class="node">
<title>reference_hf_flowpath</title>
<polygon fill="#7851a9" stroke="transparent" points="592.5,-208.5 592.5,-228.5 723.5,-228.5 723.5,-208.5 592.5,-208.5"/>
<text text-anchor="start" x="594.2608" y="-213.9" font-family="Times,serif" font-size="14.00" fill="#ffffff">reference_hf_flowpath</text>
<polygon fill="#e4dced" stroke="transparent" points="592.5,-188.5 592.5,-208.5 723.5,-208.5 723.5,-188.5 592.5,-188.5"/>
<text text-anchor="start" x="594.5" y="-193.9" font-family="Times,serif" font-size="14.00" fill="#444444">hy_id</text>
<polygon fill="#e4dced" stroke="transparent" points="592.5,-168.5 592.5,-188.5 723.5,-188.5 723.5,-168.5 592.5,-168.5"/>
<text text-anchor="start" x="594.5" y="-173.9" font-family="Times,serif" font-size="14.00" fill="#444444">geometry</text>
<polygon fill="none" stroke="#503670" stroke-opacity="0.666667" points="591,-167.5 591,-229.5 724,-229.5 724,-167.5 591,-167.5"/>
</g>
<!-- reference_hf_flowpath&#45;&gt;flowlines -->
<g id="reference_hf_flowpath_2" class="edge">
<title>reference_hf_flowpath:hy_id&#45;&gt;flowlines:hy_id</title>
<path fill="none" stroke="#555555" stroke-dasharray="5,2" d="M723.5,-198.5C748.7992,-198.5 752.1445,-216.1506 764,-238.5 783.3492,-274.976 760.4499,-412.175 791.3568,-434.4388"/>
<polygon fill="#555555" stroke="#555555" points="790.4097,-437.8102 801,-437.5 792.5277,-431.1383 790.4097,-437.8102"/>
</g>
<!-- reference_hf_flowpath&#45;&gt;transects -->
<g id="reference_hf_flowpath_3" class="edge">
<title>reference_hf_flowpath:geometry&#45;&gt;transects:cs_id</title>
<path fill="none" stroke="#555555" stroke-dasharray="5,2" d="M723.5,-178.5C758.878,-178.5 765.4718,-192.7924 800,-200.5 920.3753,-227.3708 959.1706,-199.4839 1074,-244.5 1088.8609,-250.3259 1091.1303,-262.742 1101.5752,-267.5457"/>
<polygon fill="#555555" stroke="#555555" points="1101.0122,-271.002 1111.5,-269.5 1102.3646,-264.1338 1101.0122,-271.002"/>
</g>
<!-- reference_hf_flowpath&#45;&gt;XS.fgb -->
<g id="reference_hf_flowpath_1" class="edge">
<title>reference_hf_flowpath:geometry&#45;&gt;XS.fgb:geometry</title>
<path fill="none" stroke="#555555" stroke-dasharray="5,2" d="M723.5,-178.5C805.0857,-178.5 821.6288,-131.5978 897.879,-127.7504"/>
<polygon fill="#555555" stroke="#555555" points="898.0896,-131.2463 908,-127.5 897.9165,-124.2484 898.0896,-131.2463"/>
</g>
<!-- transects&#45;&gt;cs_pts -->
<g id="transects_1" class="edge">
<title>transects:cs_id&#45;&gt;cs_pts:cs_id</title>
<path fill="none" stroke="#555555" stroke-dasharray="5,2" d="M1256.5,-269.5C1269.4306,-269.5 1274.9361,-269.5 1284.3862,-269.5"/>
<polygon fill="#555555" stroke="#555555" points="1284.5,-273.0001 1294.5,-269.5 1284.5,-266.0001 1284.5,-273.0001"/>
</g>
<!-- XS.fgb&#45;&gt;transects -->
<g id="XS.fgb_1" class="edge">
<title>XS.fgb:geometry&#45;&gt;transects:geometry</title>
<path fill="none" stroke="#555555" stroke-dasharray="5,2" d="M967,-127.5C1037.2368,-127.5 1037.785,-201.6877 1101.2163,-208.9326"/>
<polygon fill="#555555" stroke="#555555" points="1101.3223,-212.4437 1111.5,-209.5 1101.708,-205.4543 1101.3223,-212.4437"/>
</g>
</g>
</svg>

