<?xml version="1.0" encoding="UTF-8" standalone="no"?>
<!DOCTYPE svg PUBLIC "-//W3C//DTD SVG 1.1//EN"
 "http://www.w3.org/Graphics/SVG/1.1/DTD/svg11.dtd">
<!-- Generated by graphviz version 2.40.1 (20161225.0304)
 -->
<!-- Title: %0 Pages: 1 -->
<svg width="717pt" height="263pt"
 viewBox="0.00 0.00 717.00 263.00" xmlns="http://www.w3.org/2000/svg" xmlns:xlink="http://www.w3.org/1999/xlink">
<g id="graph0" class="graph" transform="scale(1 1) rotate(0) translate(4 259)">
<title>%0</title>
<g id="a_graph0"><a xlink:title="Data Model">
<polygon fill="#ffffff" stroke="transparent" points="-4,4 -4,-259 713,-259 713,4 -4,4"/>
</a>
</g>
<!-- cs_pts -->
<g id="cs_pts" class="node">
<title>cs_pts</title>
<polygon fill="#196789" stroke="transparent" points="494,-213.5 494,-233.5 708,-233.5 708,-213.5 494,-213.5"/>
<text text-anchor="start" x="583.5028" y="-218.9" font-family="Times,serif" font-size="14.00" fill="#ffffff">cs_pts</text>
<polygon fill="#aec9d5" stroke="transparent" points="494,-200.5 494,-213.5 708,-213.5 708,-200.5 494,-200.5"/>
<text text-anchor="start" x="495.7072" y="-204.3" font-family="Times,serif" font-size="8.00" fill="#000000">The Hydrofabric3D data model for the cross section represntation</text>
<polygon fill="#d1e0e7" stroke="transparent" points="494,-180.5 494,-200.5 708,-200.5 708,-180.5 494,-180.5"/>
<text text-anchor="start" x="496" y="-185.9" font-family="Times,serif" font-size="14.00" fill="#444444">hy_id</text>
<polygon fill="#d1e0e7" stroke="transparent" points="494,-160.5 494,-180.5 708,-180.5 708,-160.5 494,-160.5"/>
<text text-anchor="start" x="496" y="-166.9" font-family="Times,serif" font-style="italic" font-size="14.00" fill="#444444">cs_id</text>
<polygon fill="#d1e0e7" stroke="transparent" points="494,-140.5 494,-160.5 708,-160.5 708,-140.5 494,-140.5"/>
<text text-anchor="start" x="496" y="-145.9" font-family="Times,serif" font-size="14.00" fill="#444444">pt_id</text>
<polygon fill="#d1e0e7" stroke="transparent" points="494,-120.5 494,-140.5 708,-140.5 708,-120.5 494,-120.5"/>
<text text-anchor="start" x="496" y="-125.9" font-family="Times,serif" font-size="14.00" fill="#444444">pt_measure</text>
<polygon fill="#d1e0e7" stroke="transparent" points="494,-100.5 494,-120.5 708,-120.5 708,-100.5 494,-100.5"/>
<text text-anchor="start" x="496" y="-105.9" font-family="Times,serif" font-size="14.00" fill="#444444">relative_dist</text>
<polygon fill="#d1e0e7" stroke="transparent" points="494,-80.5 494,-100.5 708,-100.5 708,-80.5 494,-80.5"/>
<text text-anchor="start" x="496" y="-85.9" font-family="Times,serif" font-size="14.00" fill="#444444">X</text>
<polygon fill="#d1e0e7" stroke="transparent" points="494,-60.5 494,-80.5 708,-80.5 708,-60.5 494,-60.5"/>
<text text-anchor="start" x="496" y="-65.9" font-family="Times,serif" font-size="14.00" fill="#444444">Y</text>
<polygon fill="#d1e0e7" stroke="transparent" points="494,-40.5 494,-60.5 708,-60.5 708,-40.5 494,-40.5"/>
<text text-anchor="start" x="496" y="-45.9" font-family="Times,serif" font-size="14.00" fill="#444444">Z</text>
<polygon fill="#d1e0e7" stroke="transparent" points="494,-20.5 494,-40.5 708,-40.5 708,-20.5 494,-20.5"/>
<text text-anchor="start" x="496" y="-25.9" font-family="Times,serif" font-size="14.00" fill="#444444">Z_source</text>
<polygon fill="#d1e0e7" stroke="transparent" points="494,-.5 494,-20.5 708,-20.5 708,-.5 494,-.5"/>
<text text-anchor="start" x="496" y="-5.9" font-family="Times,serif" font-size="14.00" fill="#444444">roughness</text>
<polygon fill="none" stroke="#10445b" stroke-opacity="0.666667" points="493,0 493,-235 709,-235 709,0 493,0"/>
</g>
<!-- flowlines -->
<g id="flowlines" class="node">
<title>flowlines</title>
<polygon fill="#196789" stroke="transparent" points="1,-233.5 1,-253.5 273,-253.5 273,-233.5 1,-233.5"/>
<text text-anchor="start" x="110.9509" y="-238.9" font-family="Times,serif" font-size="14.00" fill="#ffffff">flowlines</text>
<polygon fill="#aec9d5" stroke="transparent" points="1,-220.5 1,-233.5 273,-233.5 273,-220.5 1,-220.5"/>
<text text-anchor="start" x="2.508" y="-224.3" font-family="Times,serif" font-size="8.00" fill="#000000">The Hydrofabric3D data model off which the representation is generated/referenced</text>
<polygon fill="#d1e0e7" stroke="transparent" points="1,-200.5 1,-220.5 273,-220.5 273,-200.5 1,-200.5"/>
<text text-anchor="start" x="3" y="-205.9" font-family="Times,serif" font-size="14.00" fill="#444444">hy_id</text>
<polygon fill="#d1e0e7" stroke="transparent" points="1,-180.5 1,-200.5 273,-200.5 273,-180.5 1,-180.5"/>
<text text-anchor="start" x="3" y="-185.9" font-family="Times,serif" font-size="14.00" fill="#444444">geometry</text>
<polygon fill="none" stroke="#10445b" stroke-opacity="0.666667" points="0,-180 0,-255 274,-255 274,-180 0,-180"/>
</g>
<!-- transects -->
<g id="transects" class="node">
<title>transects</title>
<polygon fill="#196789" stroke="transparent" points="311.5,-233.5 311.5,-253.5 456.5,-253.5 456.5,-233.5 311.5,-233.5"/>
<text text-anchor="start" x="359.5126" y="-238.9" font-family="Times,serif" font-size="14.00" fill="#ffffff">transects</text>
<polygon fill="#aec9d5" stroke="transparent" points="311.5,-220.5 311.5,-233.5 456.5,-233.5 456.5,-220.5 311.5,-220.5"/>
<text text-anchor="start" x="313.0304" y="-224.3" font-family="Times,serif" font-size="8.00" fill="#000000">The Hydrofabric3D data model for transects</text>
<polygon fill="#d1e0e7" stroke="transparent" points="311.5,-200.5 311.5,-220.5 456.5,-220.5 456.5,-200.5 311.5,-200.5"/>
<text text-anchor="start" x="313.5" y="-206.9" font-family="Times,serif" font-style="italic" font-size="14.00" fill="#444444">hy_id</text>
<polygon fill="#d1e0e7" stroke="transparent" points="311.5,-180.5 311.5,-200.5 456.5,-200.5 456.5,-180.5 311.5,-180.5"/>
<text text-anchor="start" x="313.5" y="-185.9" font-family="Times,serif" font-size="14.00" fill="#444444">cs_source</text>
<polygon fill="#d1e0e7" stroke="transparent" points="311.5,-160.5 311.5,-180.5 456.5,-180.5 456.5,-160.5 311.5,-160.5"/>
<text text-anchor="start" x="313.5" y="-165.9" font-family="Times,serif" font-size="14.00" fill="#444444">cs_id</text>
<polygon fill="#d1e0e7" stroke="transparent" points="311.5,-140.5 311.5,-160.5 456.5,-160.5 456.5,-140.5 311.5,-140.5"/>
<text text-anchor="start" x="313.5" y="-145.9" font-family="Times,serif" font-size="14.00" fill="#444444">cs_measure</text>
<polygon fill="#d1e0e7" stroke="transparent" points="311.5,-120.5 311.5,-140.5 456.5,-140.5 456.5,-120.5 311.5,-120.5"/>
<text text-anchor="start" x="313.5" y="-125.9" font-family="Times,serif" font-size="14.00" fill="#444444">cs_length</text>
<polygon fill="#d1e0e7" stroke="transparent" points="311.5,-100.5 311.5,-120.5 456.5,-120.5 456.5,-100.5 311.5,-100.5"/>
<text text-anchor="start" x="313.5" y="-105.9" font-family="Times,serif" font-size="14.00" fill="#444444">geometry</text>
<polygon fill="none" stroke="#10445b" stroke-opacity="0.666667" points="310,-100 310,-255 457,-255 457,-100 310,-100"/>
</g>
<!-- flowlines&#45;&gt;transects -->
<g id="flowlines_1" class="edge">
<title>flowlines:hy_id&#45;&gt;transects:hy_id</title>
<path fill="none" stroke="#555555" stroke-dasharray="5,2" d="M273,-210.5C286.1007,-210.5 291.6787,-210.5 301.2532,-210.5"/>
<polygon fill="#555555" stroke="#555555" points="301.5,-214.0001 311.5,-210.5 301.5,-207.0001 301.5,-214.0001"/>
</g>
<!-- transects&#45;&gt;cs_pts -->
<g id="transects_1" class="edge">
<title>transects:cs_id&#45;&gt;cs_pts:cs_id</title>
<path fill="none" stroke="#555555" stroke-dasharray="5,2" d="M456.5,-170.5C469.1302,-170.5 474.5819,-170.5 483.735,-170.5"/>
<polygon fill="#555555" stroke="#555555" points="484,-174.0001 494,-170.5 484,-167.0001 484,-174.0001"/>
</g>
</g>
</svg>

