<?xml version="1.0" encoding="UTF-8" standalone="no"?>
<!DOCTYPE svg PUBLIC "-//W3C//DTD SVG 1.1//EN"
 "http://www.w3.org/Graphics/SVG/1.1/DTD/svg11.dtd">
<!-- Generated by graphviz version 2.40.1 (20161225.0304)
 -->
<!-- Title: %0 Pages: 1 -->
<svg width="697pt" height="416pt"
 viewBox="0.00 0.00 697.00 416.00" xmlns="http://www.w3.org/2000/svg" xmlns:xlink="http://www.w3.org/1999/xlink">
<g id="graph0" class="graph" transform="scale(1 1) rotate(0) translate(4 412)">
<title>%0</title>
<g id="a_graph0"><a xlink:title="Data Model">
<polygon fill="#ffffff" stroke="transparent" points="-4,4 -4,-412 693,-412 693,4 -4,4"/>
</a>
</g>
<!-- HEC&#45;RAS cross sections -->
<g id="HEC&#45;RAS cross sections" class="node">
<title>HEC&#45;RAS cross sections</title>
<polygon fill="#179a54" stroke="transparent" points="138,-133.5 138,-153.5 282,-153.5 282,-133.5 138,-133.5"/>
<text text-anchor="start" x="139.6269" y="-138.9" font-family="Times,serif" font-size="14.00" fill="#ffffff">HEC&#45;RAS cross sections</text>
<polygon fill="#addbc3" stroke="transparent" points="138,-120.5 138,-133.5 282,-133.5 282,-120.5 138,-120.5"/>
<text text-anchor="start" x="161.896" y="-124.3" font-family="Times,serif" font-size="8.00" fill="#000000">HEC&#45;RAS Cross section lines</text>
<polygon fill="#d0eadc" stroke="transparent" points="138,-100.5 138,-120.5 282,-120.5 282,-100.5 138,-100.5"/>
<text text-anchor="start" x="140" y="-106.9" font-family="Times,serif" font-style="italic" font-size="14.00" fill="#444444">name</text>
<polygon fill="#d0eadc" stroke="transparent" points="138,-80.5 138,-100.5 282,-100.5 282,-80.5 138,-80.5"/>
<text text-anchor="start" x="140" y="-85.9" font-family="Times,serif" font-size="14.00" fill="#444444">measure</text>
<polygon fill="#d0eadc" stroke="transparent" points="138,-60.5 138,-80.5 282,-80.5 282,-60.5 138,-60.5"/>
<text text-anchor="start" x="140" y="-65.9" font-family="Times,serif" font-size="14.00" fill="#444444">cs_id</text>
<polygon fill="#d0eadc" stroke="transparent" points="138,-40.5 138,-60.5 282,-60.5 282,-40.5 138,-40.5"/>
<text text-anchor="start" x="140" y="-45.9" font-family="Times,serif" font-size="14.00" fill="#444444">cs_length</text>
<polygon fill="#d0eadc" stroke="transparent" points="138,-20.5 138,-40.5 282,-40.5 282,-20.5 138,-20.5"/>
<text text-anchor="start" x="140" y="-25.9" font-family="Times,serif" font-size="14.00" fill="#444444">geometry</text>
<polygon fill="none" stroke="#0f6638" stroke-opacity="0.666667" points="137,-20 137,-155 283,-155 283,-20 137,-20"/>
</g>
<!-- HEC&#45;RAS station elevation table -->
<g id="HEC&#45;RAS station elevation table" class="node">
<title>HEC&#45;RAS station elevation table</title>
<polygon fill="#179a54" stroke="transparent" points="320,-93.5 320,-113.5 510,-113.5 510,-93.5 320,-93.5"/>
<text text-anchor="start" x="321.8804" y="-98.9" font-family="Times,serif" font-size="14.00" fill="#ffffff">HEC&#45;RAS station elevation table</text>
<polygon fill="#addbc3" stroke="transparent" points="320,-80.5 320,-93.5 510,-93.5 510,-80.5 320,-80.5"/>
<text text-anchor="start" x="363.78" y="-84.3" font-family="Times,serif" font-size="8.00" fill="#000000">HEC&#45;RAS Cross Section Points</text>
<polygon fill="#d0eadc" stroke="transparent" points="320,-60.5 320,-80.5 510,-80.5 510,-60.5 320,-60.5"/>
<text text-anchor="start" x="322" y="-66.9" font-family="Times,serif" font-style="italic" font-size="14.00" fill="#444444">cs_id</text>
<polygon fill="#d0eadc" stroke="transparent" points="320,-40.5 320,-60.5 510,-60.5 510,-40.5 320,-40.5"/>
<text text-anchor="start" x="322" y="-45.9" font-family="Times,serif" font-size="14.00" fill="#444444">station</text>
<polygon fill="#d0eadc" stroke="transparent" points="320,-20.5 320,-40.5 510,-40.5 510,-20.5 320,-20.5"/>
<text text-anchor="start" x="322" y="-25.9" font-family="Times,serif" font-size="14.00" fill="#444444">elevation</text>
<polygon fill="#d0eadc" stroke="transparent" points="320,-.5 320,-20.5 510,-20.5 510,-.5 320,-.5"/>
<text text-anchor="start" x="322" y="-5.9" font-family="Times,serif" font-size="14.00" fill="#444444">n</text>
<polygon fill="none" stroke="#0f6638" stroke-opacity="0.666667" points="319,0 319,-115 511,-115 511,0 319,0"/>
</g>
<!-- HEC&#45;RAS cross sections&#45;&gt;HEC&#45;RAS station elevation table -->
<g id="HEC&#45;RAS cross sections_1" class="edge">
<title>HEC&#45;RAS cross sections:cs_id&#45;&gt;HEC&#45;RAS station elevation table:cs_id</title>
<path fill="none" stroke="#555555" stroke-dasharray="5,2" d="M282,-70.5C294.9306,-70.5 300.4361,-70.5 309.8862,-70.5"/>
<polygon fill="#555555" stroke="#555555" points="310,-74.0001 320,-70.5 310,-67.0001 310,-74.0001"/>
</g>
<!-- MCAT&#45;RAS -->
<g id="MCAT&#45;RAS" class="node">
<title>MCAT&#45;RAS</title>
<polygon fill="#da4a20" stroke="transparent" points="548,-386.5 548,-406.5 688,-406.5 688,-386.5 548,-386.5"/>
<text text-anchor="start" x="581.8366" y="-391.9" font-family="Times,serif" font-size="14.00" fill="#ffffff">MCAT&#45;RAS</text>
<polygon fill="#f2bfb0" stroke="transparent" points="548,-373.5 548,-386.5 688,-386.5 688,-373.5 548,-373.5"/>
<text text-anchor="start" x="571.2268" y="-377.3" font-family="Times,serif" font-size="8.00" fill="#000000">FEMA MIP via MCAT&#45;RAS</text>
<polygon fill="#f7dad2" stroke="transparent" points="548,-353.5 548,-373.5 688,-373.5 688,-353.5 548,-353.5"/>
<text text-anchor="start" x="550" y="-358.9" font-family="Times,serif" font-size="14.00" fill="#444444">Ym</text>
<polygon fill="#f7dad2" stroke="transparent" points="548,-333.5 548,-353.5 688,-353.5 688,-333.5 548,-333.5"/>
<text text-anchor="start" x="550" y="-338.9" font-family="Times,serif" font-size="14.00" fill="#444444">TW</text>
<polygon fill="#f7dad2" stroke="transparent" points="548,-313.5 548,-333.5 688,-333.5 688,-313.5 548,-313.5"/>
<text text-anchor="start" x="550" y="-318.9" font-family="Times,serif" font-size="14.00" fill="#444444">flowpath_id</text>
<polygon fill="#f7dad2" stroke="transparent" points="548,-293.5 548,-313.5 688,-313.5 688,-293.5 548,-293.5"/>
<text text-anchor="start" x="550" y="-298.9" font-family="Times,serif" font-size="14.00" fill="#444444">river_station</text>
<polygon fill="#f7dad2" stroke="transparent" points="548,-273.5 548,-293.5 688,-293.5 688,-273.5 548,-273.5"/>
<text text-anchor="start" x="550" y="-278.9" font-family="Times,serif" font-size="14.00" fill="#444444">model</text>
<polygon fill="#f7dad2" stroke="transparent" points="548,-253.5 548,-273.5 688,-273.5 688,-253.5 548,-253.5"/>
<text text-anchor="start" x="550" y="-258.9" font-family="Times,serif" font-size="14.00" fill="#444444">A</text>
<polygon fill="#f7dad2" stroke="transparent" points="548,-233.5 548,-253.5 688,-253.5 688,-233.5 548,-233.5"/>
<text text-anchor="start" x="550" y="-238.9" font-family="Times,serif" font-size="14.00" fill="#444444">r</text>
<polygon fill="#f7dad2" stroke="transparent" points="548,-213.5 548,-233.5 688,-233.5 688,-213.5 548,-213.5"/>
<text text-anchor="start" x="550" y="-218.9" font-family="Times,serif" font-size="14.00" fill="#444444">domain</text>
<polygon fill="#f7dad2" stroke="transparent" points="548,-193.5 548,-213.5 688,-213.5 688,-193.5 548,-193.5"/>
<text text-anchor="start" x="550" y="-198.9" font-family="Times,serif" font-size="14.00" fill="#444444">river_reach_rs</text>
<polygon fill="#f7dad2" stroke="transparent" points="548,-173.5 548,-193.5 688,-193.5 688,-173.5 548,-173.5"/>
<text text-anchor="start" x="550" y="-179.9" font-family="Times,serif" font-style="italic" font-size="14.00" fill="#444444">source_river</text>
<polygon fill="#f7dad2" stroke="transparent" points="548,-153.5 548,-173.5 688,-173.5 688,-153.5 548,-153.5"/>
<text text-anchor="start" x="550" y="-158.9" font-family="Times,serif" font-size="14.00" fill="#444444">source_reach</text>
<polygon fill="#f7dad2" stroke="transparent" points="548,-133.5 548,-153.5 688,-153.5 688,-133.5 548,-133.5"/>
<text text-anchor="start" x="550" y="-139.9" font-family="Times,serif" font-style="italic" font-size="14.00" fill="#444444">source_river_station</text>
<polygon fill="#f7dad2" stroke="transparent" points="548,-113.5 548,-133.5 688,-133.5 688,-113.5 548,-113.5"/>
<text text-anchor="start" x="549.5638" y="-119.9" font-family="Times,serif" font-style="italic" font-size="14.00" fill="#444444">station_elevation_points</text>
<polygon fill="#f7dad2" stroke="transparent" points="548,-93.5 548,-113.5 688,-113.5 688,-93.5 548,-93.5"/>
<text text-anchor="start" x="550" y="-98.9" font-family="Times,serif" font-size="14.00" fill="#444444">bank_stations</text>
<polygon fill="#f7dad2" stroke="transparent" points="548,-73.5 548,-93.5 688,-93.5 688,-73.5 548,-73.5"/>
<text text-anchor="start" x="550" y="-78.9" font-family="Times,serif" font-size="14.00" fill="#444444">metdata_units</text>
<polygon fill="#f7dad2" stroke="transparent" points="548,-53.5 548,-73.5 688,-73.5 688,-53.5 548,-53.5"/>
<text text-anchor="start" x="550" y="-58.9" font-family="Times,serif" font-size="14.00" fill="#444444">epsg</text>
<polygon fill="#f7dad2" stroke="transparent" points="548,-33.5 548,-53.5 688,-53.5 688,-33.5 548,-33.5"/>
<text text-anchor="start" x="550" y="-38.9" font-family="Times,serif" font-size="14.00" fill="#444444">crs_units</text>
<polygon fill="#f7dad2" stroke="transparent" points="548,-13.5 548,-33.5 688,-33.5 688,-13.5 548,-13.5"/>
<text text-anchor="start" x="550" y="-18.9" font-family="Times,serif" font-size="14.00" fill="#444444">geom</text>
<polygon fill="none" stroke="#913115" stroke-opacity="0.666667" points="547,-13 547,-408 689,-408 689,-13 547,-13"/>
</g>
<!-- HEC&#45;RAS cross sections&#45;&gt;MCAT&#45;RAS -->
<g id="HEC&#45;RAS cross sections_2" class="edge">
<title>HEC&#45;RAS cross sections:measure&#45;&gt;MCAT&#45;RAS:source_river_station</title>
<path fill="none" stroke="#555555" stroke-dasharray="5,2" d="M282,-90.5C304.0348,-90.5 298.7715,-114.7629 319,-123.5 409.5849,-162.6253 443.505,-144.8308 537.7611,-143.5686"/>
<polygon fill="#555555" stroke="#555555" points="538.0237,-147.067 548,-143.5 537.9767,-140.0672 538.0237,-147.067"/>
</g>
<!-- HEC&#45;RAS rivers -->
<g id="HEC&#45;RAS rivers" class="node">
<title>HEC&#45;RAS rivers</title>
<polygon fill="#179a54" stroke="transparent" points="1.5,-169.5 1.5,-189.5 100.5,-189.5 100.5,-169.5 1.5,-169.5"/>
<text text-anchor="start" x="3.3734" y="-174.9" font-family="Times,serif" font-size="14.00" fill="#ffffff">HEC&#45;RAS rivers</text>
<polygon fill="#addbc3" stroke="transparent" points="1.5,-156.5 1.5,-169.5 100.5,-169.5 100.5,-156.5 1.5,-156.5"/>
<text text-anchor="start" x="23.7848" y="-160.3" font-family="Times,serif" font-size="8.00" fill="#000000">HEC&#45;RAS rivers</text>
<polygon fill="#d0eadc" stroke="transparent" points="1.5,-136.5 1.5,-156.5 100.5,-156.5 100.5,-136.5 1.5,-136.5"/>
<text text-anchor="start" x="3.5" y="-141.9" font-family="Times,serif" font-size="14.00" fill="#444444">name</text>
<polygon fill="#d0eadc" stroke="transparent" points="1.5,-116.5 1.5,-136.5 100.5,-136.5 100.5,-116.5 1.5,-116.5"/>
<text text-anchor="start" x="3.5" y="-121.9" font-family="Times,serif" font-size="14.00" fill="#444444">geometry</text>
<polygon fill="none" stroke="#0f6638" stroke-opacity="0.666667" points="0,-116 0,-191 101,-191 101,-116 0,-116"/>
</g>
<!-- HEC&#45;RAS rivers&#45;&gt;HEC&#45;RAS cross sections -->
<g id="HEC&#45;RAS rivers_1" class="edge">
<title>HEC&#45;RAS rivers:name&#45;&gt;HEC&#45;RAS cross sections:name</title>
<path fill="none" stroke="#555555" stroke-dasharray="5,2" d="M100.5,-146.5C119.4522,-146.5 116.9984,-122.2751 128.2579,-113.5693"/>
<polygon fill="#555555" stroke="#555555" points="129.5139,-116.8433 138,-110.5 127.4104,-110.1668 129.5139,-116.8433"/>
</g>
<!-- HEC&#45;RAS rivers&#45;&gt;MCAT&#45;RAS -->
<g id="HEC&#45;RAS rivers_2" class="edge">
<title>HEC&#45;RAS rivers:name&#45;&gt;MCAT&#45;RAS:source_river</title>
<path fill="none" stroke="#555555" stroke-dasharray="5,2" d="M100.5,-146.5C118.5876,-146.5 119.4845,-159.987 137,-164.5 310.7926,-209.2793 363.2001,-184.4632 537.9557,-183.5269"/>
<polygon fill="#555555" stroke="#555555" points="538.0094,-187.0268 548,-183.5 537.9906,-180.0269 538.0094,-187.0268"/>
</g>
<!-- HEC&#45;RAS station elevation table&#45;&gt;MCAT&#45;RAS -->
<g id="HEC&#45;RAS station elevation table_1" class="edge">
<title>HEC&#45;RAS station elevation table:cs_id&#45;&gt;MCAT&#45;RAS:station_elevation_points</title>
<path fill="none" stroke="#555555" stroke-dasharray="5,2" d="M510,-70.5C534.9085,-70.5 523.6637,-109.6418 538.4041,-120.6505"/>
<polygon fill="#555555" stroke="#555555" points="537.4174,-124.0085 548,-123.5 539.4101,-117.2981 537.4174,-124.0085"/>
</g>
</g>
</svg>

