<?xml version="1.0" encoding="UTF-8" standalone="no"?>
<!DOCTYPE svg PUBLIC "-//W3C//DTD SVG 1.1//EN"
 "http://www.w3.org/Graphics/SVG/1.1/DTD/svg11.dtd">
<!-- Generated by graphviz version 2.40.1 (20161225.0304)
 -->
<!-- Title: %0 Pages: 1 -->
<svg width="1103pt" height="549pt"
 viewBox="0.00 0.00 1103.00 549.00" xmlns="http://www.w3.org/2000/svg" xmlns:xlink="http://www.w3.org/1999/xlink">
<g id="graph0" class="graph" transform="scale(1 1) rotate(0) translate(4 545)">
<title>%0</title>
<g id="a_graph0"><a xlink:title="Data Model">
<polygon fill="#ffffff" stroke="transparent" points="-4,4 -4,-545 1099,-545 1099,4 -4,4"/>
</a>
</g>
<!-- accounting.csv -->
<g id="accounting.csv" class="node">
<title>accounting.csv</title>
<polygon fill="#daa520" stroke="transparent" points="376.5,-306.5 376.5,-326.5 537.5,-326.5 537.5,-306.5 376.5,-306.5"/>
<text text-anchor="start" x="415.2079" y="-311.9" font-family="Times,serif" font-size="14.00" fill="#000000">accounting.csv</text>
<polygon fill="#f2dfb0" stroke="transparent" points="376.5,-293.5 376.5,-306.5 537.5,-306.5 537.5,-293.5 376.5,-293.5"/>
<text text-anchor="start" x="378.4672" y="-297.3" font-family="Times,serif" font-size="8.00" fill="#000000">A rollup catalog of all the models in the database</text>
<polygon fill="#f7edd2" stroke="transparent" points="376.5,-273.5 376.5,-293.5 537.5,-293.5 537.5,-273.5 376.5,-273.5"/>
<text text-anchor="start" x="378.5" y="-278.9" font-family="Times,serif" font-size="14.00" fill="#444444">nhdplus_comid</text>
<polygon fill="#f7edd2" stroke="transparent" points="376.5,-253.5 376.5,-273.5 537.5,-273.5 537.5,-253.5 376.5,-253.5"/>
<text text-anchor="start" x="378.5" y="-258.9" font-family="Times,serif" font-size="14.00" fill="#444444">model_name</text>
<polygon fill="#f7edd2" stroke="transparent" points="376.5,-233.5 376.5,-253.5 537.5,-253.5 537.5,-233.5 376.5,-233.5"/>
<text text-anchor="start" x="378.5" y="-238.9" font-family="Times,serif" font-size="14.00" fill="#444444">g_file</text>
<polygon fill="#f7edd2" stroke="transparent" points="376.5,-213.5 376.5,-233.5 537.5,-233.5 537.5,-213.5 376.5,-213.5"/>
<text text-anchor="start" x="378.5" y="-218.9" font-family="Times,serif" font-size="14.00" fill="#444444">last_modified</text>
<polygon fill="#f7edd2" stroke="transparent" points="376.5,-193.5 376.5,-213.5 537.5,-213.5 537.5,-193.5 376.5,-193.5"/>
<text text-anchor="start" x="378.5" y="-198.9" font-family="Times,serif" font-size="14.00" fill="#444444">source</text>
<polygon fill="#f7edd2" stroke="transparent" points="376.5,-173.5 376.5,-193.5 537.5,-193.5 537.5,-173.5 376.5,-173.5"/>
<text text-anchor="start" x="378.5" y="-178.9" font-family="Times,serif" font-size="14.00" fill="#444444">units</text>
<polygon fill="#f7edd2" stroke="transparent" points="376.5,-153.5 376.5,-173.5 537.5,-173.5 537.5,-153.5 376.5,-153.5"/>
<text text-anchor="start" x="378.5" y="-158.9" font-family="Times,serif" font-size="14.00" fill="#444444">crs</text>
<polygon fill="#f7edd2" stroke="transparent" points="376.5,-133.5 376.5,-153.5 537.5,-153.5 537.5,-133.5 376.5,-133.5"/>
<text text-anchor="start" x="378.5" y="-138.9" font-family="Times,serif" font-size="14.00" fill="#444444">initial_scrape_name</text>
<polygon fill="#f7edd2" stroke="transparent" points="376.5,-113.5 376.5,-133.5 537.5,-133.5 537.5,-113.5 376.5,-113.5"/>
<text text-anchor="start" x="378.5" y="-119.9" font-family="Times,serif" text-decoration="underline" font-size="14.00" fill="#444444">final_name_key</text>
<polygon fill="#f7edd2" stroke="transparent" points="376.5,-93.5 376.5,-113.5 537.5,-113.5 537.5,-93.5 376.5,-93.5"/>
<text text-anchor="start" x="378.5" y="-98.9" font-family="Times,serif" font-size="14.00" fill="#444444">notes</text>
<polygon fill="none" stroke="#916e15" stroke-opacity="0.666667" points="375,-93 375,-328 538,-328 538,-93 375,-93"/>
</g>
<!-- model_footprints.fgb -->
<g id="model_footprints.fgb" class="node">
<title>model_footprints.fgb</title>
<polygon fill="#daa520" stroke="transparent" points="630,-207.5 630,-227.5 752,-227.5 752,-207.5 630,-207.5"/>
<text text-anchor="start" x="631.703" y="-212.9" font-family="Times,serif" font-size="14.00" fill="#000000">model_footprints.fgb</text>
<polygon fill="#f7edd2" stroke="transparent" points="630,-187.5 630,-207.5 752,-207.5 752,-187.5 630,-187.5"/>
<text text-anchor="start" x="632" y="-192.9" font-family="Times,serif" font-size="14.00" fill="#444444">id</text>
<polygon fill="#f7edd2" stroke="transparent" points="630,-167.5 630,-187.5 752,-187.5 752,-167.5 630,-167.5"/>
<text text-anchor="start" x="632" y="-172.9" font-family="Times,serif" font-size="14.00" fill="#444444">start_master_id</text>
<polygon fill="#f7edd2" stroke="transparent" points="630,-147.5 630,-167.5 752,-167.5 752,-147.5 630,-147.5"/>
<text text-anchor="start" x="632" y="-152.9" font-family="Times,serif" font-size="14.00" fill="#444444">model_name</text>
<polygon fill="#f7edd2" stroke="transparent" points="630,-127.5 630,-147.5 752,-147.5 752,-127.5 630,-127.5"/>
<text text-anchor="start" x="632" y="-132.9" font-family="Times,serif" font-size="14.00" fill="#444444">crs</text>
<polygon fill="#f7edd2" stroke="transparent" points="630,-107.5 630,-127.5 752,-127.5 752,-107.5 630,-107.5"/>
<text text-anchor="start" x="632" y="-112.9" font-family="Times,serif" font-size="14.00" fill="#444444">units</text>
<polygon fill="#f7edd2" stroke="transparent" points="630,-87.5 630,-107.5 752,-107.5 752,-87.5 630,-87.5"/>
<text text-anchor="start" x="632" y="-93.9" font-family="Times,serif" font-style="italic" font-size="14.00" fill="#444444">final_name_key</text>
<polygon fill="#f7edd2" stroke="transparent" points="630,-67.5 630,-87.5 752,-87.5 752,-67.5 630,-67.5"/>
<text text-anchor="start" x="632" y="-72.9" font-family="Times,serif" font-size="14.00" fill="#444444">source</text>
<polygon fill="#f7edd2" stroke="transparent" points="630,-47.5 630,-67.5 752,-67.5 752,-47.5 630,-47.5"/>
<text text-anchor="start" x="632" y="-52.9" font-family="Times,serif" font-size="14.00" fill="#444444">end_master_id</text>
<polygon fill="#f7edd2" stroke="transparent" points="630,-27.5 630,-47.5 752,-47.5 752,-27.5 630,-27.5"/>
<text text-anchor="start" x="632" y="-33.9" font-family="Times,serif" font-style="italic" font-size="14.00" fill="#444444">geometry</text>
<polygon fill="none" stroke="#916e15" stroke-opacity="0.666667" points="629,-26.5 629,-228.5 753,-228.5 753,-26.5 629,-26.5"/>
</g>
<!-- accounting.csv&#45;&gt;model_footprints.fgb -->
<g id="accounting.csv_1" class="edge">
<title>accounting.csv:final_name_key&#45;&gt;model_footprints.fgb:final_name_key</title>
<path fill="none" stroke="#555555" stroke-dasharray="5,2" d="M537.5,-123.5C576.5344,-123.5 585.8139,-101.7767 619.7341,-98.043"/>
<polygon fill="#555555" stroke="#555555" points="620.1989,-101.5234 630,-97.5 619.829,-94.5332 620.1989,-101.5234"/>
</g>
<!-- HEC_cs_pts -->
<g id="HEC_cs_pts" class="node">
<title>HEC_cs_pts</title>
<polygon fill="#179a54" stroke="transparent" points="403.5,-439.5 403.5,-459.5 509.5,-459.5 509.5,-439.5 403.5,-439.5"/>
<text text-anchor="start" x="421.5049" y="-444.9" font-family="Times,serif" font-size="14.00" fill="#ffffff">HEC_cs_pts</text>
<polygon fill="#addbc3" stroke="transparent" points="403.5,-426.5 403.5,-439.5 509.5,-439.5 509.5,-426.5 403.5,-426.5"/>
<text text-anchor="start" x="405.28" y="-430.3" font-family="Times,serif" font-size="8.00" fill="#000000">HEC&#45;RAS Cross Section Points</text>
<polygon fill="#d0eadc" stroke="transparent" points="403.5,-406.5 403.5,-426.5 509.5,-426.5 509.5,-406.5 403.5,-406.5"/>
<text text-anchor="start" x="405.5" y="-412.9" font-family="Times,serif" font-style="italic" font-size="14.00" fill="#444444">cs_id</text>
<polygon fill="#d0eadc" stroke="transparent" points="403.5,-386.5 403.5,-406.5 509.5,-406.5 509.5,-386.5 403.5,-386.5"/>
<text text-anchor="start" x="405.5" y="-391.9" font-family="Times,serif" font-size="14.00" fill="#444444">station</text>
<polygon fill="#d0eadc" stroke="transparent" points="403.5,-366.5 403.5,-386.5 509.5,-386.5 509.5,-366.5 403.5,-366.5"/>
<text text-anchor="start" x="405.5" y="-371.9" font-family="Times,serif" font-size="14.00" fill="#444444">elevation</text>
<polygon fill="#d0eadc" stroke="transparent" points="403.5,-346.5 403.5,-366.5 509.5,-366.5 509.5,-346.5 403.5,-346.5"/>
<text text-anchor="start" x="405.5" y="-351.9" font-family="Times,serif" font-size="14.00" fill="#444444">n</text>
<polygon fill="none" stroke="#0f6638" stroke-opacity="0.666667" points="402.5,-346 402.5,-461 510.5,-461 510.5,-346 402.5,-346"/>
</g>
<!-- RRASSLER_cs_pts.parquet -->
<g id="RRASSLER_cs_pts.parquet" class="node">
<title>RRASSLER_cs_pts.parquet</title>
<polygon fill="#ff7f50" stroke="transparent" points="607,-519.5 607,-539.5 775,-539.5 775,-519.5 607,-519.5"/>
<text text-anchor="start" x="611.8692" y="-524.9" font-family="Times,serif" font-size="14.00" fill="#000000">RRASSLER_cs_pts.parquet</text>
<polygon fill="#ffd2c1" stroke="transparent" points="607,-506.5 607,-519.5 775,-519.5 775,-506.5 607,-506.5"/>
<text text-anchor="start" x="608.6928" y="-510.3" font-family="Times,serif" font-size="8.00" fill="#000000">XYZ tables of each station/elevation for that model</text>
<polygon fill="#ffe5dc" stroke="transparent" points="607,-486.5 607,-506.5 775,-506.5 775,-486.5 607,-486.5"/>
<text text-anchor="start" x="609" y="-491.9" font-family="Times,serif" font-size="14.00" fill="#444444">xid</text>
<polygon fill="#ffe5dc" stroke="transparent" points="607,-466.5 607,-486.5 775,-486.5 775,-466.5 607,-466.5"/>
<text text-anchor="start" x="609" y="-472.9" font-family="Times,serif" font-style="italic" font-size="14.00" fill="#444444">xid_length</text>
<polygon fill="#ffe5dc" stroke="transparent" points="607,-446.5 607,-466.5 775,-466.5 775,-446.5 607,-446.5"/>
<text text-anchor="start" x="609" y="-452.9" font-family="Times,serif" font-style="italic" font-size="14.00" fill="#444444">xid_d</text>
<polygon fill="#ffe5dc" stroke="transparent" points="607,-426.5 607,-446.5 775,-446.5 775,-426.5 607,-426.5"/>
<text text-anchor="start" x="609" y="-431.9" font-family="Times,serif" font-size="14.00" fill="#444444">relative_dist</text>
<polygon fill="#ffe5dc" stroke="transparent" points="607,-406.5 607,-426.5 775,-426.5 775,-406.5 607,-406.5"/>
<text text-anchor="start" x="609" y="-411.9" font-family="Times,serif" font-size="14.00" fill="#444444">x</text>
<polygon fill="#ffe5dc" stroke="transparent" points="607,-386.5 607,-406.5 775,-406.5 775,-386.5 607,-386.5"/>
<text text-anchor="start" x="609" y="-391.9" font-family="Times,serif" font-size="14.00" fill="#444444">y</text>
<polygon fill="#ffe5dc" stroke="transparent" points="607,-366.5 607,-386.5 775,-386.5 775,-366.5 607,-366.5"/>
<text text-anchor="start" x="609" y="-372.9" font-family="Times,serif" font-style="italic" font-size="14.00" fill="#444444">z</text>
<polygon fill="#ffe5dc" stroke="transparent" points="607,-346.5 607,-366.5 775,-366.5 775,-346.5 607,-346.5"/>
<text text-anchor="start" x="609" y="-352.9" font-family="Times,serif" font-style="italic" font-size="14.00" fill="#444444">n</text>
<polygon fill="#ffe5dc" stroke="transparent" points="607,-326.5 607,-346.5 775,-346.5 775,-326.5 607,-326.5"/>
<text text-anchor="start" x="609" y="-331.9" font-family="Times,serif" font-size="14.00" fill="#444444">source</text>
<polygon fill="none" stroke="#aa5435" stroke-opacity="0.666667" points="606,-326 606,-541 776,-541 776,-326 606,-326"/>
</g>
<!-- HEC_cs_pts&#45;&gt;RRASSLER_cs_pts.parquet -->
<g id="HEC_cs_pts_1" class="edge">
<title>HEC_cs_pts:station&#45;&gt;RRASSLER_cs_pts.parquet:xid_d</title>
<path fill="none" stroke="#555555" stroke-dasharray="5,2" d="M509.5,-396.5C556.7042,-396.5 556.4469,-448.1415 596.7914,-455.6053"/>
<polygon fill="#555555" stroke="#555555" points="596.7326,-459.1134 607,-456.5 597.3438,-452.1402 596.7326,-459.1134"/>
</g>
<!-- HEC_cs_pts&#45;&gt;RRASSLER_cs_pts.parquet -->
<g id="HEC_cs_pts_2" class="edge">
<title>HEC_cs_pts:elevation&#45;&gt;RRASSLER_cs_pts.parquet:z</title>
<path fill="none" stroke="#555555" stroke-dasharray="5,2" d="M509.5,-376.5C549.2786,-376.5 561.6706,-376.5 596.9561,-376.5"/>
<polygon fill="#555555" stroke="#555555" points="597,-380.0001 607,-376.5 597,-373.0001 597,-380.0001"/>
</g>
<!-- HEC_cs_pts&#45;&gt;RRASSLER_cs_pts.parquet -->
<g id="HEC_cs_pts_3" class="edge">
<title>HEC_cs_pts:n&#45;&gt;RRASSLER_cs_pts.parquet:n</title>
<path fill="none" stroke="#555555" stroke-dasharray="5,2" d="M509.5,-356.5C549.2786,-356.5 561.6706,-356.5 596.9561,-356.5"/>
<polygon fill="#555555" stroke="#555555" points="597,-360.0001 607,-356.5 597,-353.0001 597,-360.0001"/>
</g>
<!-- HECRAS_cross_sections -->
<g id="HECRAS_cross_sections" class="node">
<title>HECRAS_cross_sections</title>
<polygon fill="#179a54" stroke="transparent" points="145.5,-474.5 145.5,-494.5 292.5,-494.5 292.5,-474.5 145.5,-474.5"/>
<text text-anchor="start" x="147.4572" y="-479.9" font-family="Times,serif" font-size="14.00" fill="#ffffff">HECRAS_cross_sections</text>
<polygon fill="#addbc3" stroke="transparent" points="145.5,-461.5 145.5,-474.5 292.5,-474.5 292.5,-461.5 145.5,-461.5"/>
<text text-anchor="start" x="170.896" y="-465.3" font-family="Times,serif" font-size="8.00" fill="#000000">HEC&#45;RAS Cross section lines</text>
<polygon fill="#d0eadc" stroke="transparent" points="145.5,-441.5 145.5,-461.5 292.5,-461.5 292.5,-441.5 145.5,-441.5"/>
<text text-anchor="start" x="147.5" y="-447.9" font-family="Times,serif" font-style="italic" font-size="14.00" fill="#444444">name</text>
<polygon fill="#d0eadc" stroke="transparent" points="145.5,-421.5 145.5,-441.5 292.5,-441.5 292.5,-421.5 145.5,-421.5"/>
<text text-anchor="start" x="147.5" y="-426.9" font-family="Times,serif" font-size="14.00" fill="#444444">measure</text>
<polygon fill="#d0eadc" stroke="transparent" points="145.5,-401.5 145.5,-421.5 292.5,-421.5 292.5,-401.5 145.5,-401.5"/>
<text text-anchor="start" x="147.5" y="-406.9" font-family="Times,serif" font-size="14.00" fill="#444444">cs_id</text>
<polygon fill="#d0eadc" stroke="transparent" points="145.5,-381.5 145.5,-401.5 292.5,-401.5 292.5,-381.5 145.5,-381.5"/>
<text text-anchor="start" x="147.5" y="-386.9" font-family="Times,serif" font-size="14.00" fill="#444444">cs_length</text>
<polygon fill="#d0eadc" stroke="transparent" points="145.5,-361.5 145.5,-381.5 292.5,-381.5 292.5,-361.5 145.5,-361.5"/>
<text text-anchor="start" x="147.5" y="-366.9" font-family="Times,serif" font-size="14.00" fill="#444444">geometry</text>
<polygon fill="none" stroke="#0f6638" stroke-opacity="0.666667" points="144,-361 144,-496 293,-496 293,-361 144,-361"/>
</g>
<!-- HECRAS_cross_sections&#45;&gt;HEC_cs_pts -->
<g id="HECRAS_cross_sections_1" class="edge">
<title>HECRAS_cross_sections:cs_id&#45;&gt;HEC_cs_pts:cs_id</title>
<path fill="none" stroke="#555555" stroke-dasharray="5,2" d="M292.5,-411.5C338.3146,-411.5 352.1545,-415.8035 393.3478,-416.4254"/>
<polygon fill="#555555" stroke="#555555" points="393.4745,-419.9264 403.5,-416.5 393.526,-412.9266 393.4745,-419.9264"/>
</g>
<!-- HECRAS_cross_sections&#45;&gt;RRASSLER_cs_pts.parquet -->
<g id="HECRAS_cross_sections_3" class="edge">
<title>HECRAS_cross_sections:cs_length&#45;&gt;RRASSLER_cs_pts.parquet:xid_length</title>
<path fill="none" stroke="#555555" stroke-dasharray="5,2" d="M292.5,-391.5C334.1719,-391.5 306.6795,-450.0705 343,-470.5 442.2954,-526.3515 486.9883,-479.4261 596.8696,-476.6287"/>
<polygon fill="#555555" stroke="#555555" points="597.0453,-480.1268 607,-476.5 596.9563,-473.1274 597.0453,-480.1268"/>
</g>
<!-- RRASSLER_hull.fgb -->
<g id="RRASSLER_hull.fgb" class="node">
<title>RRASSLER_hull.fgb</title>
<polygon fill="#ff7f50" stroke="transparent" points="344.5,-53.5 344.5,-73.5 569.5,-73.5 569.5,-53.5 344.5,-53.5"/>
<text text-anchor="start" x="396.1357" y="-58.9" font-family="Times,serif" font-size="14.00" fill="#000000">RRASSLER_hull.fgb</text>
<polygon fill="#ffd2c1" stroke="transparent" points="344.5,-40.5 344.5,-53.5 569.5,-53.5 569.5,-40.5 344.5,-40.5"/>
<text text-anchor="start" x="346.1464" y="-44.3" font-family="Times,serif" font-size="8.00" fill="#000000">Hulls of cross section lines for a single model&#39;s geometric realization</text>
<polygon fill="#ffe5dc" stroke="transparent" points="344.5,-20.5 344.5,-40.5 569.5,-40.5 569.5,-20.5 344.5,-20.5"/>
<text text-anchor="start" x="346.5" y="-25.9" font-family="Times,serif" font-size="14.00" fill="#444444">id</text>
<polygon fill="#ffe5dc" stroke="transparent" points="344.5,-.5 344.5,-20.5 569.5,-20.5 569.5,-.5 344.5,-.5"/>
<text text-anchor="start" x="346.5" y="-6.9" font-family="Times,serif" font-style="italic" font-size="14.00" fill="#444444">geometry</text>
<polygon fill="none" stroke="#aa5435" stroke-opacity="0.666667" points="343,0 343,-75 570,-75 570,0 343,0"/>
</g>
<!-- HECRAS_cross_sections&#45;&gt;RRASSLER_hull.fgb -->
<g id="HECRAS_cross_sections_2" class="edge">
<title>HECRAS_cross_sections:geometry&#45;&gt;RRASSLER_hull.fgb:geometry</title>
<path fill="none" stroke="#555555" stroke-dasharray="5,2" d="M292.5,-371.5C369.9093,-371.5 272.9559,-42.2051 334.6998,-12.62"/>
<polygon fill="#555555" stroke="#555555" points="335.4661,-16.0353 344.5,-10.5 333.986,-9.1935 335.4661,-16.0353"/>
</g>
<!-- HECRAS_river -->
<g id="HECRAS_river" class="node">
<title>HECRAS_river</title>
<polygon fill="#179a54" stroke="transparent" points="1,-271.5 1,-291.5 93,-291.5 93,-271.5 1,-271.5"/>
<text text-anchor="start" x="2.676" y="-276.9" font-family="Times,serif" font-size="14.00" fill="#ffffff">HECRAS_river</text>
<polygon fill="#addbc3" stroke="transparent" points="1,-258.5 1,-271.5 93,-271.5 93,-258.5 1,-258.5"/>
<text text-anchor="start" x="19.7848" y="-262.3" font-family="Times,serif" font-size="8.00" fill="#000000">HEC&#45;RAS rivers</text>
<polygon fill="#d0eadc" stroke="transparent" points="1,-238.5 1,-258.5 93,-258.5 93,-238.5 1,-238.5"/>
<text text-anchor="start" x="3" y="-243.9" font-family="Times,serif" font-size="14.00" fill="#444444">name</text>
<polygon fill="#d0eadc" stroke="transparent" points="1,-218.5 1,-238.5 93,-238.5 93,-218.5 1,-218.5"/>
<text text-anchor="start" x="3" y="-223.9" font-family="Times,serif" font-size="14.00" fill="#444444">geometry</text>
<polygon fill="none" stroke="#0f6638" stroke-opacity="0.666667" points="0,-218 0,-293 94,-293 94,-218 0,-218"/>
</g>
<!-- HECRAS_river&#45;&gt;HECRAS_cross_sections -->
<g id="HECRAS_river_1" class="edge">
<title>HECRAS_river:name&#45;&gt;HECRAS_cross_sections:name</title>
<path fill="none" stroke="#555555" stroke-dasharray="5,2" d="M93,-248.5C182.3684,-248.5 62.9098,-435.1892 135.1478,-450.5035"/>
<polygon fill="#555555" stroke="#555555" points="135.2106,-454.0256 145.5,-451.5 135.8814,-447.0578 135.2106,-454.0256"/>
</g>
<!-- RRASSLER_metadata.csv -->
<g id="RRASSLER_metadata.csv" class="node">
<title>RRASSLER_metadata.csv</title>
<polygon fill="#ff7f50" stroke="transparent" points="131.5,-311.5 131.5,-331.5 306.5,-331.5 306.5,-311.5 131.5,-311.5"/>
<text text-anchor="start" x="143.7619" y="-316.9" font-family="Times,serif" font-size="14.00" fill="#000000">RRASSLER_metadata.csv</text>
<polygon fill="#ffd2c1" stroke="transparent" points="131.5,-298.5 131.5,-311.5 306.5,-311.5 306.5,-298.5 131.5,-298.5"/>
<text text-anchor="start" x="133.142" y="-302.3" font-family="Times,serif" font-size="8.00" fill="#000000">Relevant model metadata in an easily accessible form</text>
<polygon fill="#ffe5dc" stroke="transparent" points="131.5,-278.5 131.5,-298.5 306.5,-298.5 306.5,-278.5 131.5,-278.5"/>
<text text-anchor="start" x="133.5" y="-283.9" font-family="Times,serif" font-size="14.00" fill="#444444">nhdplus_comid</text>
<polygon fill="#ffe5dc" stroke="transparent" points="131.5,-258.5 131.5,-278.5 306.5,-278.5 306.5,-258.5 131.5,-258.5"/>
<text text-anchor="start" x="133.5" y="-263.9" font-family="Times,serif" font-size="14.00" fill="#444444">model_name</text>
<polygon fill="#ffe5dc" stroke="transparent" points="131.5,-238.5 131.5,-258.5 306.5,-258.5 306.5,-238.5 131.5,-238.5"/>
<text text-anchor="start" x="133.5" y="-244.9" font-family="Times,serif" font-style="italic" font-size="14.00" fill="#444444">g_file</text>
<polygon fill="#ffe5dc" stroke="transparent" points="131.5,-218.5 131.5,-238.5 306.5,-238.5 306.5,-218.5 131.5,-218.5"/>
<text text-anchor="start" x="133.5" y="-223.9" font-family="Times,serif" font-size="14.00" fill="#444444">last_modified</text>
<polygon fill="#ffe5dc" stroke="transparent" points="131.5,-198.5 131.5,-218.5 306.5,-218.5 306.5,-198.5 131.5,-198.5"/>
<text text-anchor="start" x="133.5" y="-203.9" font-family="Times,serif" font-size="14.00" fill="#444444">source</text>
<polygon fill="#ffe5dc" stroke="transparent" points="131.5,-178.5 131.5,-198.5 306.5,-198.5 306.5,-178.5 131.5,-178.5"/>
<text text-anchor="start" x="133.5" y="-183.9" font-family="Times,serif" font-size="14.00" fill="#444444">units</text>
<polygon fill="#ffe5dc" stroke="transparent" points="131.5,-158.5 131.5,-178.5 306.5,-178.5 306.5,-158.5 131.5,-158.5"/>
<text text-anchor="start" x="133.5" y="-163.9" font-family="Times,serif" font-size="14.00" fill="#444444">crs</text>
<polygon fill="#ffe5dc" stroke="transparent" points="131.5,-138.5 131.5,-158.5 306.5,-158.5 306.5,-138.5 131.5,-138.5"/>
<text text-anchor="start" x="133.5" y="-143.9" font-family="Times,serif" font-size="14.00" fill="#444444">initial_scrape_name</text>
<polygon fill="#ffe5dc" stroke="transparent" points="131.5,-118.5 131.5,-138.5 306.5,-138.5 306.5,-118.5 131.5,-118.5"/>
<text text-anchor="start" x="133.5" y="-123.9" font-family="Times,serif" font-size="14.00" fill="#444444">final_name_key</text>
<polygon fill="#ffe5dc" stroke="transparent" points="131.5,-98.5 131.5,-118.5 306.5,-118.5 306.5,-98.5 131.5,-98.5"/>
<text text-anchor="start" x="133.5" y="-103.9" font-family="Times,serif" font-size="14.00" fill="#444444">notes</text>
<polygon fill="none" stroke="#aa5435" stroke-opacity="0.666667" points="130,-98 130,-333 307,-333 307,-98 130,-98"/>
</g>
<!-- HECRAS_river&#45;&gt;RRASSLER_metadata.csv -->
<g id="HECRAS_river_3" class="edge">
<title>HECRAS_river:name&#45;&gt;RRASSLER_metadata.csv:g_file</title>
<path fill="none" stroke="#555555" stroke-dasharray="5,2" d="M93,-248.5C106.1007,-248.5 111.6787,-248.5 121.2532,-248.5"/>
<polygon fill="#555555" stroke="#555555" points="121.5,-252.0001 131.5,-248.5 121.5,-245.0001 121.5,-252.0001"/>
</g>
<!-- RRASSLER_river.fgb -->
<g id="RRASSLER_river.fgb" class="node">
<title>RRASSLER_river.fgb</title>
<polygon fill="#ff7f50" stroke="transparent" points="153.5,-58.5 153.5,-78.5 283.5,-78.5 283.5,-58.5 153.5,-58.5"/>
<text text-anchor="start" x="155.3131" y="-63.9" font-family="Times,serif" font-size="14.00" fill="#000000">RRASSLER_river.fgb</text>
<polygon fill="#ffd2c1" stroke="transparent" points="153.5,-45.5 153.5,-58.5 283.5,-58.5 283.5,-45.5 153.5,-45.5"/>
<text text-anchor="start" x="163.0724" y="-49.3" font-family="Times,serif" font-size="8.00" fill="#000000">River line extraction for the model</text>
<polygon fill="#ffe5dc" stroke="transparent" points="153.5,-25.5 153.5,-45.5 283.5,-45.5 283.5,-25.5 153.5,-25.5"/>
<text text-anchor="start" x="155.5" y="-30.9" font-family="Times,serif" font-size="14.00" fill="#444444">reach_id</text>
<polygon fill="#ffe5dc" stroke="transparent" points="153.5,-5.5 153.5,-25.5 283.5,-25.5 283.5,-5.5 153.5,-5.5"/>
<text text-anchor="start" x="155.5" y="-11.9" font-family="Times,serif" font-style="italic" font-size="14.00" fill="#444444">geometry</text>
<polygon fill="none" stroke="#aa5435" stroke-opacity="0.666667" points="152.5,-5 152.5,-80 284.5,-80 284.5,-5 152.5,-5"/>
</g>
<!-- HECRAS_river&#45;&gt;RRASSLER_river.fgb -->
<g id="HECRAS_river_2" class="edge">
<title>HECRAS_river:geometry&#45;&gt;RRASSLER_river.fgb:geometry</title>
<path fill="none" stroke="#555555" stroke-dasharray="5,2" d="M93,-228.5C138.5537,-228.5 109.4419,-45.9439 143.9125,-18.8457"/>
<polygon fill="#555555" stroke="#555555" points="145.2116,-22.0994 153.5,-15.5 142.9052,-15.4903 145.2116,-22.0994"/>
</g>
<!-- point_database.parquet -->
<g id="point_database.parquet" class="node">
<title>point_database.parquet</title>
<polygon fill="#daa520" stroke="transparent" points="813,-519.5 813,-539.5 997,-539.5 997,-519.5 813,-519.5"/>
<text text-anchor="start" x="840.2724" y="-524.9" font-family="Times,serif" font-size="14.00" fill="#000000">point_database.parquet</text>
<polygon fill="#f2dfb0" stroke="transparent" points="813,-506.5 813,-519.5 997,-519.5 997,-506.5 813,-506.5"/>
<text text-anchor="start" x="814.7028" y="-510.3" font-family="Times,serif" font-size="8.00" fill="#000000">XYZ tables of each station/elevation across the database</text>
<polygon fill="#f7edd2" stroke="transparent" points="813,-486.5 813,-506.5 997,-506.5 997,-486.5 813,-486.5"/>
<text text-anchor="start" x="815" y="-492.9" font-family="Times,serif" font-style="italic" font-size="14.00" fill="#444444">xid</text>
<polygon fill="#f7edd2" stroke="transparent" points="813,-466.5 813,-486.5 997,-486.5 997,-466.5 813,-466.5"/>
<text text-anchor="start" x="815" y="-471.9" font-family="Times,serif" font-size="14.00" fill="#444444">xid_length</text>
<polygon fill="#f7edd2" stroke="transparent" points="813,-446.5 813,-466.5 997,-466.5 997,-446.5 813,-446.5"/>
<text text-anchor="start" x="815" y="-451.9" font-family="Times,serif" font-size="14.00" fill="#444444">xid_d</text>
<polygon fill="#f7edd2" stroke="transparent" points="813,-426.5 813,-446.5 997,-446.5 997,-426.5 813,-426.5"/>
<text text-anchor="start" x="815" y="-431.9" font-family="Times,serif" font-size="14.00" fill="#444444">relative_dist</text>
<polygon fill="#f7edd2" stroke="transparent" points="813,-406.5 813,-426.5 997,-426.5 997,-406.5 813,-406.5"/>
<text text-anchor="start" x="815" y="-411.9" font-family="Times,serif" font-size="14.00" fill="#444444">x</text>
<polygon fill="#f7edd2" stroke="transparent" points="813,-386.5 813,-406.5 997,-406.5 997,-386.5 813,-386.5"/>
<text text-anchor="start" x="815" y="-391.9" font-family="Times,serif" font-size="14.00" fill="#444444">y</text>
<polygon fill="#f7edd2" stroke="transparent" points="813,-366.5 813,-386.5 997,-386.5 997,-366.5 813,-366.5"/>
<text text-anchor="start" x="815" y="-371.9" font-family="Times,serif" font-size="14.00" fill="#444444">z</text>
<polygon fill="#f7edd2" stroke="transparent" points="813,-346.5 813,-366.5 997,-366.5 997,-346.5 813,-346.5"/>
<text text-anchor="start" x="815" y="-351.9" font-family="Times,serif" font-size="14.00" fill="#444444">n</text>
<polygon fill="#f7edd2" stroke="transparent" points="813,-326.5 813,-346.5 997,-346.5 997,-326.5 813,-326.5"/>
<text text-anchor="start" x="815" y="-331.9" font-family="Times,serif" font-size="14.00" fill="#444444">source</text>
<polygon fill="#f7edd2" stroke="transparent" points="813,-306.5 813,-326.5 997,-326.5 997,-306.5 813,-306.5"/>
<text text-anchor="start" x="815" y="-311.9" font-family="Times,serif" font-size="14.00" fill="#444444">master_id</text>
<polygon fill="none" stroke="#916e15" stroke-opacity="0.666667" points="812,-306 812,-541 998,-541 998,-306 812,-306"/>
</g>
<!-- XS.fgb -->
<g id="XS.fgb" class="node">
<title>XS.fgb</title>
<polygon fill="#daa520" stroke="transparent" points="1035.5,-339.5 1035.5,-359.5 1094.5,-359.5 1094.5,-339.5 1035.5,-339.5"/>
<text text-anchor="start" x="1044.9751" y="-344.9" font-family="Times,serif" font-size="14.00" fill="#000000">XS.fgb</text>
<polygon fill="#f2dfb0" stroke="transparent" points="1035.5,-326.5 1035.5,-339.5 1094.5,-339.5 1094.5,-326.5 1035.5,-326.5"/>
<text text-anchor="start" x="1042.004" y="-330.3" font-family="Times,serif" font-size="8.00" fill="#000000">Cross sections</text>
<polygon fill="#f7edd2" stroke="transparent" points="1035.5,-306.5 1035.5,-326.5 1094.5,-326.5 1094.5,-306.5 1035.5,-306.5"/>
<text text-anchor="start" x="1037.3969" y="-312.9" font-family="Times,serif" font-style="italic" font-size="14.00" fill="#444444">master_id</text>
<polygon fill="#f7edd2" stroke="transparent" points="1035.5,-286.5 1035.5,-306.5 1094.5,-306.5 1094.5,-286.5 1035.5,-286.5"/>
<text text-anchor="start" x="1037.5" y="-291.9" font-family="Times,serif" font-size="14.00" fill="#444444">geometry</text>
<polygon fill="none" stroke="#916e15" stroke-opacity="0.666667" points="1034,-286 1034,-361 1095,-361 1095,-286 1034,-286"/>
</g>
<!-- point_database.parquet&#45;&gt;XS.fgb -->
<g id="point_database.parquet_1" class="edge">
<title>point_database.parquet:master_id&#45;&gt;XS.fgb:master_id</title>
<path fill="none" stroke="#555555" stroke-dasharray="5,2" d="M997,-316.5C1010.1007,-316.5 1015.6787,-316.5 1025.2532,-316.5"/>
<polygon fill="#555555" stroke="#555555" points="1025.5,-320.0001 1035.5,-316.5 1025.5,-313.0001 1025.5,-320.0001"/>
</g>
<!-- RRASSLER_cs_pts.parquet&#45;&gt;point_database.parquet -->
<g id="RRASSLER_cs_pts.parquet_1" class="edge">
<title>RRASSLER_cs_pts.parquet:xid&#45;&gt;point_database.parquet:xid</title>
<path fill="none" stroke="#555555" stroke-dasharray="5,2" d="M775,-496.5C787.9306,-496.5 793.4361,-496.5 802.8862,-496.5"/>
<polygon fill="#555555" stroke="#555555" points="803,-500.0001 813,-496.5 803,-493.0001 803,-500.0001"/>
</g>
<!-- RRASSLER_hull.fgb&#45;&gt;model_footprints.fgb -->
<g id="RRASSLER_hull.fgb_1" class="edge">
<title>RRASSLER_hull.fgb:geometry&#45;&gt;model_footprints.fgb:geometry</title>
<path fill="none" stroke="#555555" stroke-dasharray="5,2" d="M569.5,-10.5C595.1494,-10.5 599.6774,-30.9877 619.8814,-36.2697"/>
<polygon fill="#555555" stroke="#555555" points="619.6506,-39.7673 630,-37.5 620.4956,-32.8185 619.6506,-39.7673"/>
</g>
<!-- RRASSLER_metadata.csv&#45;&gt;accounting.csv -->
<g id="RRASSLER_metadata.csv_1" class="edge">
<title>RRASSLER_metadata.csv:final_name_key&#45;&gt;accounting.csv:final_name_key</title>
<path fill="none" stroke="#555555" d="M306.5,-128.5C334.0353,-128.5 343.2002,-124.6032 366.4299,-123.6899"/>
<polygon fill="#555555" stroke="#555555" points="366.5678,-127.188 376.5,-123.5 366.4358,-120.1893 366.5678,-127.188"/>
</g>
</g>
</svg>

