<?xml version="1.0" encoding="UTF-8" standalone="no"?>
<!DOCTYPE svg PUBLIC "-//W3C//DTD SVG 1.1//EN"
 "http://www.w3.org/Graphics/SVG/1.1/DTD/svg11.dtd">
<!-- Generated by graphviz version 2.40.1 (20161225.0304)
 -->
<!-- Title: %0 Pages: 1 -->
<svg width="519pt" height="163pt"
 viewBox="0.00 0.00 519.00 163.00" xmlns="http://www.w3.org/2000/svg" xmlns:xlink="http://www.w3.org/1999/xlink">
<g id="graph0" class="graph" transform="scale(1 1) rotate(0) translate(4 159)">
<title>%0</title>
<g id="a_graph0"><a xlink:title="Data Model">
<polygon fill="#ffffff" stroke="transparent" points="-4,4 -4,-159 515,-159 515,4 -4,4"/>
</a>
</g>
<!-- HEC&#45;RAS cross sections -->
<g id="HEC&#45;RAS cross sections" class="node">
<title>HEC&#45;RAS cross sections</title>
<polygon fill="#179a54" stroke="transparent" points="138,-133.5 138,-153.5 282,-153.5 282,-133.5 138,-133.5"/>
<text text-anchor="start" x="139.6269" y="-138.9" font-family="Times,serif" font-size="14.00" fill="#ffffff">HEC&#45;RAS cross sections</text>
<polygon fill="#addbc3" stroke="transparent" points="138,-120.5 138,-133.5 282,-133.5 282,-120.5 138,-120.5"/>
<text text-anchor="start" x="161.896" y="-124.3" font-family="Times,serif" font-size="8.00" fill="#000000">HEC&#45;RAS Cross section lines</text>
<polygon fill="#d0eadc" stroke="transparent" points="138,-100.5 138,-120.5 282,-120.5 282,-100.5 138,-100.5"/>
<text text-anchor="start" x="140" y="-106.9" font-family="Times,serif" font-style="italic" font-size="14.00" fill="#444444">name</text>
<polygon fill="#d0eadc" stroke="transparent" points="138,-80.5 138,-100.5 282,-100.5 282,-80.5 138,-80.5"/>
<text text-anchor="start" x="140" y="-85.9" font-family="Times,serif" font-size="14.00" fill="#444444">measure</text>
<polygon fill="#d0eadc" stroke="transparent" points="138,-60.5 138,-80.5 282,-80.5 282,-60.5 138,-60.5"/>
<text text-anchor="start" x="140" y="-65.9" font-family="Times,serif" font-size="14.00" fill="#444444">cs_id</text>
<polygon fill="#d0eadc" stroke="transparent" points="138,-40.5 138,-60.5 282,-60.5 282,-40.5 138,-40.5"/>
<text text-anchor="start" x="140" y="-45.9" font-family="Times,serif" font-size="14.00" fill="#444444">cs_length</text>
<polygon fill="#d0eadc" stroke="transparent" points="138,-20.5 138,-40.5 282,-40.5 282,-20.5 138,-20.5"/>
<text text-anchor="start" x="140" y="-25.9" font-family="Times,serif" font-size="14.00" fill="#444444">geometry</text>
<polygon fill="none" stroke="#0f6638" stroke-opacity="0.666667" points="137,-20 137,-155 283,-155 283,-20 137,-20"/>
</g>
<!-- HEC&#45;RAS station elevation table -->
<g id="HEC&#45;RAS station elevation table" class="node">
<title>HEC&#45;RAS station elevation table</title>
<polygon fill="#179a54" stroke="transparent" points="320,-93.5 320,-113.5 510,-113.5 510,-93.5 320,-93.5"/>
<text text-anchor="start" x="321.8804" y="-98.9" font-family="Times,serif" font-size="14.00" fill="#ffffff">HEC&#45;RAS station elevation table</text>
<polygon fill="#addbc3" stroke="transparent" points="320,-80.5 320,-93.5 510,-93.5 510,-80.5 320,-80.5"/>
<text text-anchor="start" x="363.78" y="-84.3" font-family="Times,serif" font-size="8.00" fill="#000000">HEC&#45;RAS Cross Section Points</text>
<polygon fill="#d0eadc" stroke="transparent" points="320,-60.5 320,-80.5 510,-80.5 510,-60.5 320,-60.5"/>
<text text-anchor="start" x="322" y="-66.9" font-family="Times,serif" font-style="italic" font-size="14.00" fill="#444444">cs_id</text>
<polygon fill="#d0eadc" stroke="transparent" points="320,-40.5 320,-60.5 510,-60.5 510,-40.5 320,-40.5"/>
<text text-anchor="start" x="322" y="-45.9" font-family="Times,serif" font-size="14.00" fill="#444444">station</text>
<polygon fill="#d0eadc" stroke="transparent" points="320,-20.5 320,-40.5 510,-40.5 510,-20.5 320,-20.5"/>
<text text-anchor="start" x="322" y="-25.9" font-family="Times,serif" font-size="14.00" fill="#444444">elevation</text>
<polygon fill="#d0eadc" stroke="transparent" points="320,-.5 320,-20.5 510,-20.5 510,-.5 320,-.5"/>
<text text-anchor="start" x="322" y="-5.9" font-family="Times,serif" font-size="14.00" fill="#444444">n</text>
<polygon fill="none" stroke="#0f6638" stroke-opacity="0.666667" points="319,0 319,-115 511,-115 511,0 319,0"/>
</g>
<!-- HEC&#45;RAS cross sections&#45;&gt;HEC&#45;RAS station elevation table -->
<g id="HEC&#45;RAS cross sections_1" class="edge">
<title>HEC&#45;RAS cross sections:cs_id&#45;&gt;HEC&#45;RAS station elevation table:cs_id</title>
<path fill="none" stroke="#555555" stroke-dasharray="5,2" d="M282,-70.5C294.9306,-70.5 300.4361,-70.5 309.8862,-70.5"/>
<polygon fill="#555555" stroke="#555555" points="310,-74.0001 320,-70.5 310,-67.0001 310,-74.0001"/>
</g>
<!-- HEC&#45;RAS rivers -->
<g id="HEC&#45;RAS rivers" class="node">
<title>HEC&#45;RAS rivers</title>
<polygon fill="#179a54" stroke="transparent" points="1.5,-133.5 1.5,-153.5 100.5,-153.5 100.5,-133.5 1.5,-133.5"/>
<text text-anchor="start" x="3.3734" y="-138.9" font-family="Times,serif" font-size="14.00" fill="#ffffff">HEC&#45;RAS rivers</text>
<polygon fill="#addbc3" stroke="transparent" points="1.5,-120.5 1.5,-133.5 100.5,-133.5 100.5,-120.5 1.5,-120.5"/>
<text text-anchor="start" x="23.7848" y="-124.3" font-family="Times,serif" font-size="8.00" fill="#000000">HEC&#45;RAS rivers</text>
<polygon fill="#d0eadc" stroke="transparent" points="1.5,-100.5 1.5,-120.5 100.5,-120.5 100.5,-100.5 1.5,-100.5"/>
<text text-anchor="start" x="3.5" y="-105.9" font-family="Times,serif" font-size="14.00" fill="#444444">name</text>
<polygon fill="#d0eadc" stroke="transparent" points="1.5,-80.5 1.5,-100.5 100.5,-100.5 100.5,-80.5 1.5,-80.5"/>
<text text-anchor="start" x="3.5" y="-85.9" font-family="Times,serif" font-size="14.00" fill="#444444">geometry</text>
<polygon fill="none" stroke="#0f6638" stroke-opacity="0.666667" points="0,-80 0,-155 101,-155 101,-80 0,-80"/>
</g>
<!-- HEC&#45;RAS rivers&#45;&gt;HEC&#45;RAS cross sections -->
<g id="HEC&#45;RAS rivers_1" class="edge">
<title>HEC&#45;RAS rivers:name&#45;&gt;HEC&#45;RAS cross sections:name</title>
<path fill="none" stroke="#555555" stroke-dasharray="5,2" d="M100.5,-110.5C113.1302,-110.5 118.5819,-110.5 127.735,-110.5"/>
<polygon fill="#555555" stroke="#555555" points="128,-114.0001 138,-110.5 128,-107.0001 128,-114.0001"/>
</g>
</g>
</svg>

