<?xml version="1.0" encoding="UTF-8" standalone="no"?>
<!DOCTYPE svg PUBLIC "-//W3C//DTD SVG 1.1//EN"
 "http://www.w3.org/Graphics/SVG/1.1/DTD/svg11.dtd">
<!-- Generated by graphviz version 2.40.1 (20161225.0304)
 -->
<!-- Title: %0 Pages: 1 -->
<svg width="1193pt" height="594pt"
 viewBox="0.00 0.00 1193.00 594.00" xmlns="http://www.w3.org/2000/svg" xmlns:xlink="http://www.w3.org/1999/xlink">
<g id="graph0" class="graph" transform="scale(1 1) rotate(0) translate(4 590)">
<title>%0</title>
<g id="a_graph0"><a xlink:title="Data Model">
<polygon fill="#ffffff" stroke="transparent" points="-4,4 -4,-590 1189,-590 1189,4 -4,4"/>
</a>
</g>
<!-- accounting.csv -->
<g id="accounting.csv" class="node">
<title>accounting.csv</title>
<polygon fill="#daa520" stroke="transparent" points="246.5,-416.5 246.5,-436.5 407.5,-436.5 407.5,-416.5 246.5,-416.5"/>
<text text-anchor="start" x="285.2079" y="-421.9" font-family="Times,serif" font-size="14.00" fill="#000000">accounting.csv</text>
<polygon fill="#f2dfb0" stroke="transparent" points="246.5,-403.5 246.5,-416.5 407.5,-416.5 407.5,-403.5 246.5,-403.5"/>
<text text-anchor="start" x="248.4672" y="-407.3" font-family="Times,serif" font-size="8.00" fill="#000000">A rollup catalog of all the models in the database</text>
<polygon fill="#f7edd2" stroke="transparent" points="246.5,-383.5 246.5,-403.5 407.5,-403.5 407.5,-383.5 246.5,-383.5"/>
<text text-anchor="start" x="248.5" y="-388.9" font-family="Times,serif" font-size="14.00" fill="#444444">nhdplus_comid</text>
<polygon fill="#f7edd2" stroke="transparent" points="246.5,-363.5 246.5,-383.5 407.5,-383.5 407.5,-363.5 246.5,-363.5"/>
<text text-anchor="start" x="248.5" y="-368.9" font-family="Times,serif" font-size="14.00" fill="#444444">model_name</text>
<polygon fill="#f7edd2" stroke="transparent" points="246.5,-343.5 246.5,-363.5 407.5,-363.5 407.5,-343.5 246.5,-343.5"/>
<text text-anchor="start" x="248.5" y="-348.9" font-family="Times,serif" font-size="14.00" fill="#444444">g_file</text>
<polygon fill="#f7edd2" stroke="transparent" points="246.5,-323.5 246.5,-343.5 407.5,-343.5 407.5,-323.5 246.5,-323.5"/>
<text text-anchor="start" x="248.5" y="-328.9" font-family="Times,serif" font-size="14.00" fill="#444444">last_modified</text>
<polygon fill="#f7edd2" stroke="transparent" points="246.5,-303.5 246.5,-323.5 407.5,-323.5 407.5,-303.5 246.5,-303.5"/>
<text text-anchor="start" x="248.5" y="-308.9" font-family="Times,serif" font-size="14.00" fill="#444444">source</text>
<polygon fill="#f7edd2" stroke="transparent" points="246.5,-283.5 246.5,-303.5 407.5,-303.5 407.5,-283.5 246.5,-283.5"/>
<text text-anchor="start" x="248.5" y="-288.9" font-family="Times,serif" font-size="14.00" fill="#444444">units</text>
<polygon fill="#f7edd2" stroke="transparent" points="246.5,-263.5 246.5,-283.5 407.5,-283.5 407.5,-263.5 246.5,-263.5"/>
<text text-anchor="start" x="248.5" y="-268.9" font-family="Times,serif" font-size="14.00" fill="#444444">crs</text>
<polygon fill="#f7edd2" stroke="transparent" points="246.5,-243.5 246.5,-263.5 407.5,-263.5 407.5,-243.5 246.5,-243.5"/>
<text text-anchor="start" x="248.5" y="-248.9" font-family="Times,serif" font-size="14.00" fill="#444444">initial_scrape_name</text>
<polygon fill="#f7edd2" stroke="transparent" points="246.5,-223.5 246.5,-243.5 407.5,-243.5 407.5,-223.5 246.5,-223.5"/>
<text text-anchor="start" x="248.5" y="-229.9" font-family="Times,serif" text-decoration="underline" font-size="14.00" fill="#444444">final_name_key</text>
<polygon fill="#f7edd2" stroke="transparent" points="246.5,-203.5 246.5,-223.5 407.5,-223.5 407.5,-203.5 246.5,-203.5"/>
<text text-anchor="start" x="248.5" y="-208.9" font-family="Times,serif" font-size="14.00" fill="#444444">notes</text>
<polygon fill="none" stroke="#916e15" stroke-opacity="0.666667" points="245,-203 245,-438 408,-438 408,-203 245,-203"/>
</g>
<!-- model_footprints.fgb -->
<g id="model_footprints.fgb" class="node">
<title>model_footprints.fgb</title>
<polygon fill="#daa520" stroke="transparent" points="542.5,-193.5 542.5,-213.5 691.5,-213.5 691.5,-193.5 542.5,-193.5"/>
<text text-anchor="start" x="557.703" y="-198.9" font-family="Times,serif" font-size="14.00" fill="#000000">model_footprints.fgb</text>
<polygon fill="#f2dfb0" stroke="transparent" points="542.5,-180.5 542.5,-193.5 691.5,-193.5 691.5,-180.5 542.5,-180.5"/>
<text text-anchor="start" x="544.356" y="-184.3" font-family="Times,serif" font-size="8.00" fill="#000000">Hulls of cross section lines in a single feature</text>
<polygon fill="#f7edd2" stroke="transparent" points="542.5,-160.5 542.5,-180.5 691.5,-180.5 691.5,-160.5 542.5,-160.5"/>
<text text-anchor="start" x="544.5" y="-165.9" font-family="Times,serif" font-size="14.00" fill="#444444">id</text>
<polygon fill="#f7edd2" stroke="transparent" points="542.5,-140.5 542.5,-160.5 691.5,-160.5 691.5,-140.5 542.5,-140.5"/>
<text text-anchor="start" x="544.5" y="-145.9" font-family="Times,serif" font-size="14.00" fill="#444444">start_master_id</text>
<polygon fill="#f7edd2" stroke="transparent" points="542.5,-120.5 542.5,-140.5 691.5,-140.5 691.5,-120.5 542.5,-120.5"/>
<text text-anchor="start" x="544.5" y="-125.9" font-family="Times,serif" font-size="14.00" fill="#444444">model_name</text>
<polygon fill="#f7edd2" stroke="transparent" points="542.5,-100.5 542.5,-120.5 691.5,-120.5 691.5,-100.5 542.5,-100.5"/>
<text text-anchor="start" x="544.5" y="-105.9" font-family="Times,serif" font-size="14.00" fill="#444444">crs</text>
<polygon fill="#f7edd2" stroke="transparent" points="542.5,-80.5 542.5,-100.5 691.5,-100.5 691.5,-80.5 542.5,-80.5"/>
<text text-anchor="start" x="544.5" y="-85.9" font-family="Times,serif" font-size="14.00" fill="#444444">units</text>
<polygon fill="#f7edd2" stroke="transparent" points="542.5,-60.5 542.5,-80.5 691.5,-80.5 691.5,-60.5 542.5,-60.5"/>
<text text-anchor="start" x="544.5" y="-66.9" font-family="Times,serif" text-decoration="underline" font-size="14.00" fill="#444444">final_name_key</text>
<polygon fill="#f7edd2" stroke="transparent" points="542.5,-40.5 542.5,-60.5 691.5,-60.5 691.5,-40.5 542.5,-40.5"/>
<text text-anchor="start" x="544.5" y="-45.9" font-family="Times,serif" font-size="14.00" fill="#444444">source</text>
<polygon fill="#f7edd2" stroke="transparent" points="542.5,-20.5 542.5,-40.5 691.5,-40.5 691.5,-20.5 542.5,-20.5"/>
<text text-anchor="start" x="544.5" y="-25.9" font-family="Times,serif" font-size="14.00" fill="#444444">end_master_id</text>
<polygon fill="#f7edd2" stroke="transparent" points="542.5,-.5 542.5,-20.5 691.5,-20.5 691.5,-.5 542.5,-.5"/>
<text text-anchor="start" x="544.5" y="-6.9" font-family="Times,serif" font-style="italic" font-size="14.00" fill="#444444">geometry</text>
<polygon fill="none" stroke="#916e15" stroke-opacity="0.666667" points="541,0 541,-215 692,-215 692,0 541,0"/>
</g>
<!-- accounting.csv&#45;&gt;model_footprints.fgb -->
<g id="accounting.csv_1" class="edge">
<title>accounting.csv:final_name_key&#45;&gt;model_footprints.fgb:final_name_key</title>
<path fill="none" stroke="#555555" d="M407.5,-233.5C497.8904,-233.5 452.3613,-82.9857 532.133,-71.2267"/>
<polygon fill="#555555" stroke="#555555" points="532.7693,-74.6908 542.5,-70.5 532.2797,-67.7079 532.7693,-74.6908"/>
</g>
<!-- OWP_ras_models_catalog.csv -->
<g id="OWP_ras_models_catalog.csv" class="node">
<title>OWP_ras_models_catalog.csv</title>
<polygon fill="#deb887" stroke="transparent" points="477.5,-526.5 477.5,-546.5 756.5,-546.5 756.5,-526.5 477.5,-526.5"/>
<text text-anchor="start" x="531.2759" y="-531.9" font-family="Times,serif" font-size="14.00" fill="#000000">OWP_ras_models_catalog.csv</text>
<polygon fill="#f3e6d5" stroke="transparent" points="477.5,-513.5 477.5,-526.5 756.5,-526.5 756.5,-513.5 477.5,-513.5"/>
<text text-anchor="start" x="479.4864" y="-517.3" font-family="Times,serif" font-size="8.00" fill="#000000">A catalog appended with helper fields that aid in the downstream accounting at OWP </text>
<polygon fill="#f8f0e7" stroke="transparent" points="477.5,-493.5 477.5,-513.5 756.5,-513.5 756.5,-493.5 477.5,-493.5"/>
<text text-anchor="start" x="479.5" y="-498.9" font-family="Times,serif" font-size="14.00" fill="#444444">nhdplus_comid</text>
<polygon fill="#f8f0e7" stroke="transparent" points="477.5,-473.5 477.5,-493.5 756.5,-493.5 756.5,-473.5 477.5,-473.5"/>
<text text-anchor="start" x="479.5" y="-478.9" font-family="Times,serif" font-size="14.00" fill="#444444">model_name</text>
<polygon fill="#f8f0e7" stroke="transparent" points="477.5,-453.5 477.5,-473.5 756.5,-473.5 756.5,-453.5 477.5,-453.5"/>
<text text-anchor="start" x="479.5" y="-458.9" font-family="Times,serif" font-size="14.00" fill="#444444">g_file</text>
<polygon fill="#f8f0e7" stroke="transparent" points="477.5,-433.5 477.5,-453.5 756.5,-453.5 756.5,-433.5 477.5,-433.5"/>
<text text-anchor="start" x="479.5" y="-438.9" font-family="Times,serif" font-size="14.00" fill="#444444">last_modified</text>
<polygon fill="#f8f0e7" stroke="transparent" points="477.5,-413.5 477.5,-433.5 756.5,-433.5 756.5,-413.5 477.5,-413.5"/>
<text text-anchor="start" x="479.5" y="-418.9" font-family="Times,serif" font-size="14.00" fill="#444444">source</text>
<polygon fill="#f8f0e7" stroke="transparent" points="477.5,-393.5 477.5,-413.5 756.5,-413.5 756.5,-393.5 477.5,-393.5"/>
<text text-anchor="start" x="479.5" y="-398.9" font-family="Times,serif" font-size="14.00" fill="#444444">units</text>
<polygon fill="#f8f0e7" stroke="transparent" points="477.5,-373.5 477.5,-393.5 756.5,-393.5 756.5,-373.5 477.5,-373.5"/>
<text text-anchor="start" x="479.5" y="-378.9" font-family="Times,serif" font-size="14.00" fill="#444444">crs</text>
<polygon fill="#f8f0e7" stroke="transparent" points="477.5,-353.5 477.5,-373.5 756.5,-373.5 756.5,-353.5 477.5,-353.5"/>
<text text-anchor="start" x="479.5" y="-358.9" font-family="Times,serif" font-size="14.00" fill="#444444">initial_scrape_name</text>
<polygon fill="#f8f0e7" stroke="transparent" points="477.5,-333.5 477.5,-353.5 756.5,-353.5 756.5,-333.5 477.5,-333.5"/>
<text text-anchor="start" x="479.5" y="-339.9" font-family="Times,serif" text-decoration="underline" font-size="14.00" fill="#444444">final_name_key</text>
<polygon fill="#f8f0e7" stroke="transparent" points="477.5,-313.5 477.5,-333.5 756.5,-333.5 756.5,-313.5 477.5,-313.5"/>
<text text-anchor="start" x="479.5" y="-318.9" font-family="Times,serif" font-size="14.00" fill="#444444">notes</text>
<polygon fill="#f8f0e7" stroke="transparent" points="477.5,-293.5 477.5,-313.5 756.5,-313.5 756.5,-293.5 477.5,-293.5"/>
<text text-anchor="start" x="479.5" y="-298.9" font-family="Times,serif" font-size="14.00" fill="#444444">date</text>
<polygon fill="#f8f0e7" stroke="transparent" points="477.5,-273.5 477.5,-293.5 756.5,-293.5 756.5,-273.5 477.5,-273.5"/>
<text text-anchor="start" x="479.5" y="-278.9" font-family="Times,serif" font-size="14.00" fill="#444444">hucs</text>
<polygon fill="#f8f0e7" stroke="transparent" points="477.5,-253.5 477.5,-273.5 756.5,-273.5 756.5,-253.5 477.5,-253.5"/>
<text text-anchor="start" x="479.5" y="-258.9" font-family="Times,serif" font-size="14.00" fill="#444444">source_code</text>
<polygon fill="#f8f0e7" stroke="transparent" points="477.5,-233.5 477.5,-253.5 756.5,-253.5 756.5,-233.5 477.5,-233.5"/>
<text text-anchor="start" x="479.5" y="-238.9" font-family="Times,serif" font-size="14.00" fill="#444444">status</text>
<polygon fill="none" stroke="#947a5a" stroke-opacity="0.666667" points="476,-233 476,-548 757,-548 757,-233 476,-233"/>
</g>
<!-- accounting.csv&#45;&gt;OWP_ras_models_catalog.csv -->
<g id="accounting.csv_2" class="edge">
<title>accounting.csv:final_name_key&#45;&gt;OWP_ras_models_catalog.csv:final_name_key</title>
<path fill="none" stroke="#555555" d="M407.5,-233.5C461.7135,-233.5 425.0365,-329.7773 467.5337,-342.188"/>
<polygon fill="#555555" stroke="#555555" points="467.1287,-345.6648 477.5,-343.5 468.0424,-338.7247 467.1287,-345.6648"/>
</g>
<!-- model_footprints.fgb&#45;&gt;accounting.csv -->
<g id="model_footprints.fgb_3" class="edge">
<title>model_footprints.fgb:final_name_key&#45;&gt;accounting.csv:final_name_key</title>
<path fill="none" stroke="#555555" d="M542.5,-70.5C452.1096,-70.5 497.6387,-221.0143 417.867,-232.7733"/>
<polygon fill="#555555" stroke="#555555" points="417.2307,-229.3092 407.5,-233.5 417.7203,-236.2921 417.2307,-229.3092"/>
</g>
<!-- XS.fgb -->
<g id="XS.fgb" class="node">
<title>XS.fgb</title>
<polygon fill="#daa520" stroke="transparent" points="849,-113.5 849,-133.5 908,-133.5 908,-113.5 849,-113.5"/>
<text text-anchor="start" x="858.4751" y="-118.9" font-family="Times,serif" font-size="14.00" fill="#000000">XS.fgb</text>
<polygon fill="#f2dfb0" stroke="transparent" points="849,-100.5 849,-113.5 908,-113.5 908,-100.5 849,-100.5"/>
<text text-anchor="start" x="855.504" y="-104.3" font-family="Times,serif" font-size="8.00" fill="#000000">Cross sections</text>
<polygon fill="#f7edd2" stroke="transparent" points="849,-80.5 849,-100.5 908,-100.5 908,-80.5 849,-80.5"/>
<text text-anchor="start" x="850.8969" y="-86.9" font-family="Times,serif" text-decoration="underline" font-size="14.00" fill="#444444">master_id</text>
<polygon fill="#f7edd2" stroke="transparent" points="849,-60.5 849,-80.5 908,-80.5 908,-60.5 849,-60.5"/>
<text text-anchor="start" x="851" y="-65.9" font-family="Times,serif" font-size="14.00" fill="#444444">geometry</text>
<polygon fill="none" stroke="#916e15" stroke-opacity="0.666667" points="847.5,-60 847.5,-135 908.5,-135 908.5,-60 847.5,-60"/>
</g>
<!-- model_footprints.fgb&#45;&gt;XS.fgb -->
<g id="model_footprints.fgb_1" class="edge">
<title>model_footprints.fgb:start_master_id&#45;&gt;XS.fgb:master_id</title>
<path fill="none" stroke="#555555" d="M691.5,-150.5C762.8961,-150.5 773.2244,-95.9932 838.8954,-90.8831"/>
<polygon fill="#555555" stroke="#555555" points="839.1398,-94.3765 849,-90.5 838.8745,-87.3815 839.1398,-94.3765"/>
</g>
<!-- model_footprints.fgb&#45;&gt;XS.fgb -->
<g id="model_footprints.fgb_2" class="edge">
<title>model_footprints.fgb:end_master_id&#45;&gt;XS.fgb:master_id</title>
<path fill="none" stroke="#555555" d="M691.5,-30.5C762.8961,-30.5 773.2244,-85.0068 838.8954,-90.1169"/>
<polygon fill="#555555" stroke="#555555" points="838.8745,-93.6185 849,-90.5 839.1398,-86.6235 838.8745,-93.6185"/>
</g>
<!-- OWP_ras_models_catalog.csv&#45;&gt;accounting.csv -->
<g id="OWP_ras_models_catalog.csv_1" class="edge">
<title>OWP_ras_models_catalog.csv:final_name_key&#45;&gt;accounting.csv:final_name_key</title>
<path fill="none" stroke="#555555" d="M477.5,-343.5C423.2865,-343.5 459.9635,-247.2227 417.4663,-234.812"/>
<polygon fill="#555555" stroke="#555555" points="417.8713,-231.3352 407.5,-233.5 416.9576,-238.2753 417.8713,-231.3352"/>
</g>
<!-- point_database.parquet -->
<g id="point_database.parquet" class="node">
<title>point_database.parquet</title>
<polygon fill="#daa520" stroke="transparent" points="1000,-293.5 1000,-313.5 1184,-313.5 1184,-293.5 1000,-293.5"/>
<text text-anchor="start" x="1027.2724" y="-298.9" font-family="Times,serif" font-size="14.00" fill="#000000">point_database.parquet</text>
<polygon fill="#f2dfb0" stroke="transparent" points="1000,-280.5 1000,-293.5 1184,-293.5 1184,-280.5 1000,-280.5"/>
<text text-anchor="start" x="1001.7028" y="-284.3" font-family="Times,serif" font-size="8.00" fill="#000000">XYZ tables of each station/elevation across the database</text>
<polygon fill="#f7edd2" stroke="transparent" points="1000,-260.5 1000,-280.5 1184,-280.5 1184,-260.5 1000,-260.5"/>
<text text-anchor="start" x="1002" y="-266.9" font-family="Times,serif" font-style="italic" font-size="14.00" fill="#444444">xid</text>
<polygon fill="#f7edd2" stroke="transparent" points="1000,-240.5 1000,-260.5 1184,-260.5 1184,-240.5 1000,-240.5"/>
<text text-anchor="start" x="1002" y="-245.9" font-family="Times,serif" font-size="14.00" fill="#444444">xid_length</text>
<polygon fill="#f7edd2" stroke="transparent" points="1000,-220.5 1000,-240.5 1184,-240.5 1184,-220.5 1000,-220.5"/>
<text text-anchor="start" x="1002" y="-225.9" font-family="Times,serif" font-size="14.00" fill="#444444">xid_d</text>
<polygon fill="#f7edd2" stroke="transparent" points="1000,-200.5 1000,-220.5 1184,-220.5 1184,-200.5 1000,-200.5"/>
<text text-anchor="start" x="1002" y="-205.9" font-family="Times,serif" font-size="14.00" fill="#444444">relative_dist</text>
<polygon fill="#f7edd2" stroke="transparent" points="1000,-180.5 1000,-200.5 1184,-200.5 1184,-180.5 1000,-180.5"/>
<text text-anchor="start" x="1002" y="-185.9" font-family="Times,serif" font-size="14.00" fill="#444444">x</text>
<polygon fill="#f7edd2" stroke="transparent" points="1000,-160.5 1000,-180.5 1184,-180.5 1184,-160.5 1000,-160.5"/>
<text text-anchor="start" x="1002" y="-165.9" font-family="Times,serif" font-size="14.00" fill="#444444">y</text>
<polygon fill="#f7edd2" stroke="transparent" points="1000,-140.5 1000,-160.5 1184,-160.5 1184,-140.5 1000,-140.5"/>
<text text-anchor="start" x="1002" y="-145.9" font-family="Times,serif" font-size="14.00" fill="#444444">z</text>
<polygon fill="#f7edd2" stroke="transparent" points="1000,-120.5 1000,-140.5 1184,-140.5 1184,-120.5 1000,-120.5"/>
<text text-anchor="start" x="1002" y="-125.9" font-family="Times,serif" font-size="14.00" fill="#444444">n</text>
<polygon fill="#f7edd2" stroke="transparent" points="1000,-100.5 1000,-120.5 1184,-120.5 1184,-100.5 1000,-100.5"/>
<text text-anchor="start" x="1002" y="-105.9" font-family="Times,serif" font-size="14.00" fill="#444444">source</text>
<polygon fill="#f7edd2" stroke="transparent" points="1000,-80.5 1000,-100.5 1184,-100.5 1184,-80.5 1000,-80.5"/>
<text text-anchor="start" x="1002" y="-86.9" font-family="Times,serif" text-decoration="underline" font-size="14.00" fill="#444444">master_id</text>
<polygon fill="none" stroke="#916e15" stroke-opacity="0.666667" points="999,-80 999,-315 1185,-315 1185,-80 999,-80"/>
</g>
<!-- point_database.parquet&#45;&gt;XS.fgb -->
<g id="point_database.parquet_1" class="edge">
<title>point_database.parquet:master_id&#45;&gt;XS.fgb:master_id</title>
<path fill="none" stroke="#555555" d="M1000,-90.5C962.7847,-90.5 950.9732,-90.5 918.3227,-90.5"/>
<polygon fill="#555555" stroke="#555555" points="918,-87.0001 908,-90.5 918,-94.0001 918,-87.0001"/>
</g>
<!-- RRASSLER_cs_pts.parquet -->
<g id="RRASSLER_cs_pts.parquet" class="node">
<title>RRASSLER_cs_pts.parquet</title>
<polygon fill="#ff7f50" stroke="transparent" points="794,-346.5 794,-366.5 962,-366.5 962,-346.5 794,-346.5"/>
<text text-anchor="start" x="798.8692" y="-351.9" font-family="Times,serif" font-size="14.00" fill="#000000">RRASSLER_cs_pts.parquet</text>
<polygon fill="#ffd2c1" stroke="transparent" points="794,-333.5 794,-346.5 962,-346.5 962,-333.5 794,-333.5"/>
<text text-anchor="start" x="795.6928" y="-337.3" font-family="Times,serif" font-size="8.00" fill="#000000">XYZ tables of each station/elevation for that model</text>
<polygon fill="#ffe5dc" stroke="transparent" points="794,-313.5 794,-333.5 962,-333.5 962,-313.5 794,-313.5"/>
<text text-anchor="start" x="796" y="-318.9" font-family="Times,serif" font-size="14.00" fill="#444444">xid</text>
<polygon fill="#ffe5dc" stroke="transparent" points="794,-293.5 794,-313.5 962,-313.5 962,-293.5 794,-293.5"/>
<text text-anchor="start" x="796" y="-298.9" font-family="Times,serif" font-size="14.00" fill="#444444">xid_length</text>
<polygon fill="#ffe5dc" stroke="transparent" points="794,-273.5 794,-293.5 962,-293.5 962,-273.5 794,-273.5"/>
<text text-anchor="start" x="796" y="-278.9" font-family="Times,serif" font-size="14.00" fill="#444444">xid_d</text>
<polygon fill="#ffe5dc" stroke="transparent" points="794,-253.5 794,-273.5 962,-273.5 962,-253.5 794,-253.5"/>
<text text-anchor="start" x="796" y="-258.9" font-family="Times,serif" font-size="14.00" fill="#444444">relative_dist</text>
<polygon fill="#ffe5dc" stroke="transparent" points="794,-233.5 794,-253.5 962,-253.5 962,-233.5 794,-233.5"/>
<text text-anchor="start" x="796" y="-238.9" font-family="Times,serif" font-size="14.00" fill="#444444">x</text>
<polygon fill="#ffe5dc" stroke="transparent" points="794,-213.5 794,-233.5 962,-233.5 962,-213.5 794,-213.5"/>
<text text-anchor="start" x="796" y="-218.9" font-family="Times,serif" font-size="14.00" fill="#444444">y</text>
<polygon fill="#ffe5dc" stroke="transparent" points="794,-193.5 794,-213.5 962,-213.5 962,-193.5 794,-193.5"/>
<text text-anchor="start" x="796" y="-198.9" font-family="Times,serif" font-size="14.00" fill="#444444">z</text>
<polygon fill="#ffe5dc" stroke="transparent" points="794,-173.5 794,-193.5 962,-193.5 962,-173.5 794,-173.5"/>
<text text-anchor="start" x="796" y="-178.9" font-family="Times,serif" font-size="14.00" fill="#444444">n</text>
<polygon fill="#ffe5dc" stroke="transparent" points="794,-153.5 794,-173.5 962,-173.5 962,-153.5 794,-153.5"/>
<text text-anchor="start" x="796" y="-158.9" font-family="Times,serif" font-size="14.00" fill="#444444">source</text>
<polygon fill="none" stroke="#aa5435" stroke-opacity="0.666667" points="793,-153 793,-368 963,-368 963,-153 793,-153"/>
</g>
<!-- RRASSLER_cs_pts.parquet&#45;&gt;point_database.parquet -->
<g id="RRASSLER_cs_pts.parquet_1" class="edge">
<title>RRASSLER_cs_pts.parquet:xid&#45;&gt;point_database.parquet:xid</title>
<path fill="none" stroke="#555555" stroke-dasharray="5,2" d="M962,-323.5C986.9085,-323.5 975.6637,-284.3582 990.4041,-273.3495"/>
<polygon fill="#555555" stroke="#555555" points="991.4101,-276.7019 1000,-270.5 989.4174,-269.9915 991.4101,-276.7019"/>
</g>
<!-- RRASSLER_hull.fgb -->
<g id="RRASSLER_hull.fgb" class="node">
<title>RRASSLER_hull.fgb</title>
<polygon fill="#ff7f50" stroke="transparent" points="214.5,-53.5 214.5,-73.5 439.5,-73.5 439.5,-53.5 214.5,-53.5"/>
<text text-anchor="start" x="266.1357" y="-58.9" font-family="Times,serif" font-size="14.00" fill="#000000">RRASSLER_hull.fgb</text>
<polygon fill="#ffd2c1" stroke="transparent" points="214.5,-40.5 214.5,-53.5 439.5,-53.5 439.5,-40.5 214.5,-40.5"/>
<text text-anchor="start" x="216.1464" y="-44.3" font-family="Times,serif" font-size="8.00" fill="#000000">Hulls of cross section lines for a single model&#39;s geometric realization</text>
<polygon fill="#ffe5dc" stroke="transparent" points="214.5,-20.5 214.5,-40.5 439.5,-40.5 439.5,-20.5 214.5,-20.5"/>
<text text-anchor="start" x="216.5" y="-25.9" font-family="Times,serif" font-size="14.00" fill="#444444">id</text>
<polygon fill="#ffe5dc" stroke="transparent" points="214.5,-.5 214.5,-20.5 439.5,-20.5 439.5,-.5 214.5,-.5"/>
<text text-anchor="start" x="216.5" y="-5.9" font-family="Times,serif" font-size="14.00" fill="#444444">geometry</text>
<polygon fill="none" stroke="#aa5435" stroke-opacity="0.666667" points="213,0 213,-75 440,-75 440,0 213,0"/>
</g>
<!-- RRASSLER_hull.fgb&#45;&gt;model_footprints.fgb -->
<g id="RRASSLER_hull.fgb_1" class="edge">
<title>RRASSLER_hull.fgb:geometry&#45;&gt;model_footprints.fgb:geometry</title>
<path fill="none" stroke="#555555" stroke-dasharray="5,2" d="M439.5,-10.5C481.7014,-10.5 494.7245,-10.5 532.3668,-10.5"/>
<polygon fill="#555555" stroke="#555555" points="532.5,-14.0001 542.5,-10.5 532.5,-7.0001 532.5,-14.0001"/>
</g>
<!-- RRASSLER_metadata.csv -->
<g id="RRASSLER_metadata.csv" class="node">
<title>RRASSLER_metadata.csv</title>
<polygon fill="#ff7f50" stroke="transparent" points="1.5,-416.5 1.5,-436.5 176.5,-436.5 176.5,-416.5 1.5,-416.5"/>
<text text-anchor="start" x="13.7619" y="-421.9" font-family="Times,serif" font-size="14.00" fill="#000000">RRASSLER_metadata.csv</text>
<polygon fill="#ffd2c1" stroke="transparent" points="1.5,-403.5 1.5,-416.5 176.5,-416.5 176.5,-403.5 1.5,-403.5"/>
<text text-anchor="start" x="3.142" y="-407.3" font-family="Times,serif" font-size="8.00" fill="#000000">Relevant model metadata in an easily accessible form</text>
<polygon fill="#ffe5dc" stroke="transparent" points="1.5,-383.5 1.5,-403.5 176.5,-403.5 176.5,-383.5 1.5,-383.5"/>
<text text-anchor="start" x="3.5" y="-388.9" font-family="Times,serif" font-size="14.00" fill="#444444">nhdplus_comid</text>
<polygon fill="#ffe5dc" stroke="transparent" points="1.5,-363.5 1.5,-383.5 176.5,-383.5 176.5,-363.5 1.5,-363.5"/>
<text text-anchor="start" x="3.5" y="-368.9" font-family="Times,serif" font-size="14.00" fill="#444444">model_name</text>
<polygon fill="#ffe5dc" stroke="transparent" points="1.5,-343.5 1.5,-363.5 176.5,-363.5 176.5,-343.5 1.5,-343.5"/>
<text text-anchor="start" x="3.5" y="-348.9" font-family="Times,serif" font-size="14.00" fill="#444444">g_file</text>
<polygon fill="#ffe5dc" stroke="transparent" points="1.5,-323.5 1.5,-343.5 176.5,-343.5 176.5,-323.5 1.5,-323.5"/>
<text text-anchor="start" x="3.5" y="-328.9" font-family="Times,serif" font-size="14.00" fill="#444444">last_modified</text>
<polygon fill="#ffe5dc" stroke="transparent" points="1.5,-303.5 1.5,-323.5 176.5,-323.5 176.5,-303.5 1.5,-303.5"/>
<text text-anchor="start" x="3.5" y="-308.9" font-family="Times,serif" font-size="14.00" fill="#444444">source</text>
<polygon fill="#ffe5dc" stroke="transparent" points="1.5,-283.5 1.5,-303.5 176.5,-303.5 176.5,-283.5 1.5,-283.5"/>
<text text-anchor="start" x="3.5" y="-288.9" font-family="Times,serif" font-size="14.00" fill="#444444">units</text>
<polygon fill="#ffe5dc" stroke="transparent" points="1.5,-263.5 1.5,-283.5 176.5,-283.5 176.5,-263.5 1.5,-263.5"/>
<text text-anchor="start" x="3.5" y="-268.9" font-family="Times,serif" font-size="14.00" fill="#444444">crs</text>
<polygon fill="#ffe5dc" stroke="transparent" points="1.5,-243.5 1.5,-263.5 176.5,-263.5 176.5,-243.5 1.5,-243.5"/>
<text text-anchor="start" x="3.5" y="-248.9" font-family="Times,serif" font-size="14.00" fill="#444444">initial_scrape_name</text>
<polygon fill="#ffe5dc" stroke="transparent" points="1.5,-223.5 1.5,-243.5 176.5,-243.5 176.5,-223.5 1.5,-223.5"/>
<text text-anchor="start" x="3.5" y="-229.9" font-family="Times,serif" text-decoration="underline" font-size="14.00" fill="#444444">final_name_key</text>
<polygon fill="#ffe5dc" stroke="transparent" points="1.5,-203.5 1.5,-223.5 176.5,-223.5 176.5,-203.5 1.5,-203.5"/>
<text text-anchor="start" x="3.5" y="-208.9" font-family="Times,serif" font-size="14.00" fill="#444444">notes</text>
<polygon fill="none" stroke="#aa5435" stroke-opacity="0.666667" points="0,-203 0,-438 177,-438 177,-203 0,-203"/>
</g>
<!-- RRASSLER_metadata.csv&#45;&gt;accounting.csv -->
<g id="RRASSLER_metadata.csv_1" class="edge">
<title>RRASSLER_metadata.csv:final_name_key&#45;&gt;accounting.csv:final_name_key</title>
<path fill="none" stroke="#555555" d="M176.5,-233.5C203.9653,-233.5 213.2455,-233.5 236.4487,-233.5"/>
<polygon fill="#555555" stroke="#555555" points="236.5,-237.0001 246.5,-233.5 236.5,-230.0001 236.5,-237.0001"/>
</g>
<!-- RRASSLER_river.fgb -->
<g id="RRASSLER_river.fgb" class="node">
<title>RRASSLER_river.fgb</title>
<polygon fill="#ff7f50" stroke="transparent" points="222,-564.5 222,-584.5 352,-584.5 352,-564.5 222,-564.5"/>
<text text-anchor="start" x="223.8131" y="-569.9" font-family="Times,serif" font-size="14.00" fill="#000000">RRASSLER_river.fgb</text>
<polygon fill="#ffd2c1" stroke="transparent" points="222,-551.5 222,-564.5 352,-564.5 352,-551.5 222,-551.5"/>
<text text-anchor="start" x="231.5724" y="-555.3" font-family="Times,serif" font-size="8.00" fill="#000000">River line extraction for the model</text>
<polygon fill="#ffe5dc" stroke="transparent" points="222,-531.5 222,-551.5 352,-551.5 352,-531.5 222,-531.5"/>
<text text-anchor="start" x="224" y="-536.9" font-family="Times,serif" font-size="14.00" fill="#444444">reach_id</text>
<polygon fill="#ffe5dc" stroke="transparent" points="222,-511.5 222,-531.5 352,-531.5 352,-511.5 222,-511.5"/>
<text text-anchor="start" x="224" y="-516.9" font-family="Times,serif" font-size="14.00" fill="#444444">geometry</text>
<polygon fill="none" stroke="#aa5435" stroke-opacity="0.666667" points="221,-511 221,-586 353,-586 353,-511 221,-511"/>
</g>
<!-- XS.fgb&#45;&gt;point_database.parquet -->
<g id="XS.fgb_1" class="edge">
<title>XS.fgb:master_id&#45;&gt;point_database.parquet:master_id</title>
<path fill="none" stroke="#555555" d="M908,-90.5C945.2153,-90.5 957.0268,-90.5 989.6773,-90.5"/>
<polygon fill="#555555" stroke="#555555" points="990,-94.0001 1000,-90.5 990,-87.0001 990,-94.0001"/>
</g>
</g>
</svg>

