<?xml version="1.0" encoding="UTF-8" standalone="no"?>
<!DOCTYPE svg PUBLIC "-//W3C//DTD SVG 1.1//EN"
 "http://www.w3.org/Graphics/SVG/1.1/DTD/svg11.dtd">
<!-- Generated by graphviz version 2.40.1 (20161225.0304)
 -->
<!-- Title: %0 Pages: 1 -->
<svg width="1073pt" height="902pt"
 viewBox="0.00 0.00 1073.00 902.00" xmlns="http://www.w3.org/2000/svg" xmlns:xlink="http://www.w3.org/1999/xlink">
<g id="graph0" class="graph" transform="scale(1 1) rotate(0) translate(4 898)">
<title>%0</title>
<g id="a_graph0"><a xlink:title="Data Model">
<polygon fill="#ffffff" stroke="transparent" points="-4,4 -4,-898 1069,-898 1069,4 -4,4"/>
</a>
</g>
<!-- accounting.csv -->
<g id="accounting.csv" class="node">
<title>accounting.csv</title>
<polygon fill="#da7620" stroke="transparent" points="131.5,-719.5 131.5,-739.5 292.5,-739.5 292.5,-719.5 131.5,-719.5"/>
<text text-anchor="start" x="170.2079" y="-724.9" font-family="Times,serif" font-size="14.00" fill="#ffffff">accounting.csv</text>
<polygon fill="#f2cfb0" stroke="transparent" points="131.5,-706.5 131.5,-719.5 292.5,-719.5 292.5,-706.5 131.5,-706.5"/>
<text text-anchor="start" x="133.4672" y="-710.3" font-family="Times,serif" font-size="8.00" fill="#000000">A rollup catalog of all the models in the database</text>
<polygon fill="#f7e3d2" stroke="transparent" points="131.5,-686.5 131.5,-706.5 292.5,-706.5 292.5,-686.5 131.5,-686.5"/>
<text text-anchor="start" x="133.5" y="-691.9" font-family="Times,serif" font-size="14.00" fill="#444444">nhdplus_comid</text>
<polygon fill="#f7e3d2" stroke="transparent" points="131.5,-666.5 131.5,-686.5 292.5,-686.5 292.5,-666.5 131.5,-666.5"/>
<text text-anchor="start" x="133.5" y="-671.9" font-family="Times,serif" font-size="14.00" fill="#444444">model_name</text>
<polygon fill="#f7e3d2" stroke="transparent" points="131.5,-646.5 131.5,-666.5 292.5,-666.5 292.5,-646.5 131.5,-646.5"/>
<text text-anchor="start" x="133.5" y="-651.9" font-family="Times,serif" font-size="14.00" fill="#444444">g_file</text>
<polygon fill="#f7e3d2" stroke="transparent" points="131.5,-626.5 131.5,-646.5 292.5,-646.5 292.5,-626.5 131.5,-626.5"/>
<text text-anchor="start" x="133.5" y="-631.9" font-family="Times,serif" font-size="14.00" fill="#444444">last_modified</text>
<polygon fill="#f7e3d2" stroke="transparent" points="131.5,-606.5 131.5,-626.5 292.5,-626.5 292.5,-606.5 131.5,-606.5"/>
<text text-anchor="start" x="133.5" y="-611.9" font-family="Times,serif" font-size="14.00" fill="#444444">source</text>
<polygon fill="#f7e3d2" stroke="transparent" points="131.5,-586.5 131.5,-606.5 292.5,-606.5 292.5,-586.5 131.5,-586.5"/>
<text text-anchor="start" x="133.5" y="-591.9" font-family="Times,serif" font-size="14.00" fill="#444444">units</text>
<polygon fill="#f7e3d2" stroke="transparent" points="131.5,-566.5 131.5,-586.5 292.5,-586.5 292.5,-566.5 131.5,-566.5"/>
<text text-anchor="start" x="133.5" y="-571.9" font-family="Times,serif" font-size="14.00" fill="#444444">crs</text>
<polygon fill="#f7e3d2" stroke="transparent" points="131.5,-546.5 131.5,-566.5 292.5,-566.5 292.5,-546.5 131.5,-546.5"/>
<text text-anchor="start" x="133.5" y="-551.9" font-family="Times,serif" font-size="14.00" fill="#444444">initial_scrape_name</text>
<polygon fill="#f7e3d2" stroke="transparent" points="131.5,-526.5 131.5,-546.5 292.5,-546.5 292.5,-526.5 131.5,-526.5"/>
<text text-anchor="start" x="133.5" y="-532.9" font-family="Times,serif" font-style="italic" font-size="14.00" fill="#444444">final_name_key</text>
<polygon fill="#f7e3d2" stroke="transparent" points="131.5,-506.5 131.5,-526.5 292.5,-526.5 292.5,-506.5 131.5,-506.5"/>
<text text-anchor="start" x="133.5" y="-511.9" font-family="Times,serif" font-size="14.00" fill="#444444">notes</text>
<polygon fill="none" stroke="#914e15" stroke-opacity="0.666667" points="130,-506 130,-741 293,-741 293,-506 130,-506"/>
</g>
<!-- flowlines -->
<g id="flowlines" class="node">
<title>flowlines</title>
<polygon fill="#196789" stroke="transparent" points="330,-872.5 330,-892.5 602,-892.5 602,-872.5 330,-872.5"/>
<text text-anchor="start" x="439.9509" y="-877.9" font-family="Times,serif" font-size="14.00" fill="#ffffff">flowlines</text>
<polygon fill="#aec9d5" stroke="transparent" points="330,-859.5 330,-872.5 602,-872.5 602,-859.5 330,-859.5"/>
<text text-anchor="start" x="331.508" y="-863.3" font-family="Times,serif" font-size="8.00" fill="#000000">The Hydrofabric3D data model off which the representation is generated/referenced</text>
<polygon fill="#d1e0e7" stroke="transparent" points="330,-839.5 330,-859.5 602,-859.5 602,-839.5 330,-839.5"/>
<text text-anchor="start" x="332" y="-845.9" font-family="Times,serif" font-style="italic" font-size="14.00" fill="#444444">hy_id</text>
<polygon fill="#d1e0e7" stroke="transparent" points="330,-819.5 330,-839.5 602,-839.5 602,-819.5 330,-819.5"/>
<text text-anchor="start" x="332" y="-824.9" font-family="Times,serif" font-size="14.00" fill="#444444">geometry</text>
<polygon fill="none" stroke="#10445b" stroke-opacity="0.666667" points="329,-819 329,-894 603,-894 603,-819 329,-819"/>
</g>
<!-- accounting.csv&#45;&gt;flowlines -->
<g id="accounting.csv_1" class="edge">
<title>accounting.csv:nhdplus_comid&#45;&gt;flowlines:hy_id</title>
<path fill="none" stroke="#555555" stroke-dasharray="5,2" d="M292.5,-696.5C358.6839,-696.5 270.685,-833.2232 320.0051,-848.1773"/>
<polygon fill="#555555" stroke="#555555" points="319.6272,-851.6577 330,-849.5 320.5456,-844.7182 319.6272,-851.6577"/>
</g>
<!-- mip_xs -->
<g id="mip_xs" class="node">
<title>mip_xs</title>
<polygon fill="#da4a20" stroke="transparent" points="361,-779.5 361,-799.5 572,-799.5 572,-779.5 361,-779.5"/>
<text text-anchor="start" x="445.8871" y="-784.9" font-family="Times,serif" font-size="14.00" fill="#ffffff">mip_xs</text>
<polygon fill="#f2bfb0" stroke="transparent" points="361,-766.5 361,-779.5 572,-779.5 572,-766.5 361,-766.5"/>
<text text-anchor="start" x="362.9596" y="-770.3" font-family="Times,serif" font-size="8.00" fill="#000000">HEC&#45;RAS Cross sections from the FEMA MIP via MCAT&#45;RAS</text>
<polygon fill="#f7dad2" stroke="transparent" points="361,-746.5 361,-766.5 572,-766.5 572,-746.5 361,-746.5"/>
<text text-anchor="start" x="363" y="-751.9" font-family="Times,serif" font-size="14.00" fill="#444444">Ym</text>
<polygon fill="#f7dad2" stroke="transparent" points="361,-726.5 361,-746.5 572,-746.5 572,-726.5 361,-726.5"/>
<text text-anchor="start" x="363" y="-731.9" font-family="Times,serif" font-size="14.00" fill="#444444">TW</text>
<polygon fill="#f7dad2" stroke="transparent" points="361,-706.5 361,-726.5 572,-726.5 572,-706.5 361,-706.5"/>
<text text-anchor="start" x="363" y="-711.9" font-family="Times,serif" font-size="14.00" fill="#444444">flowpath_id</text>
<polygon fill="#f7dad2" stroke="transparent" points="361,-686.5 361,-706.5 572,-706.5 572,-686.5 361,-686.5"/>
<text text-anchor="start" x="363" y="-691.9" font-family="Times,serif" font-size="14.00" fill="#444444">river_station</text>
<polygon fill="#f7dad2" stroke="transparent" points="361,-666.5 361,-686.5 572,-686.5 572,-666.5 361,-666.5"/>
<text text-anchor="start" x="363" y="-671.9" font-family="Times,serif" font-size="14.00" fill="#444444">model</text>
<polygon fill="#f7dad2" stroke="transparent" points="361,-646.5 361,-666.5 572,-666.5 572,-646.5 361,-646.5"/>
<text text-anchor="start" x="363" y="-651.9" font-family="Times,serif" font-size="14.00" fill="#444444">A</text>
<polygon fill="#f7dad2" stroke="transparent" points="361,-626.5 361,-646.5 572,-646.5 572,-626.5 361,-626.5"/>
<text text-anchor="start" x="363" y="-631.9" font-family="Times,serif" font-size="14.00" fill="#444444">r</text>
<polygon fill="#f7dad2" stroke="transparent" points="361,-606.5 361,-626.5 572,-626.5 572,-606.5 361,-606.5"/>
<text text-anchor="start" x="363" y="-612.9" font-family="Times,serif" font-style="italic" font-size="14.00" fill="#444444">domain</text>
<polygon fill="#f7dad2" stroke="transparent" points="361,-586.5 361,-606.5 572,-606.5 572,-586.5 361,-586.5"/>
<text text-anchor="start" x="363" y="-591.9" font-family="Times,serif" font-size="14.00" fill="#444444">river_reach_rs</text>
<polygon fill="#f7dad2" stroke="transparent" points="361,-566.5 361,-586.5 572,-586.5 572,-566.5 361,-566.5"/>
<text text-anchor="start" x="363" y="-571.9" font-family="Times,serif" font-size="14.00" fill="#444444">source_river</text>
<polygon fill="#f7dad2" stroke="transparent" points="361,-546.5 361,-566.5 572,-566.5 572,-546.5 361,-546.5"/>
<text text-anchor="start" x="363" y="-551.9" font-family="Times,serif" font-size="14.00" fill="#444444">source_reach</text>
<polygon fill="#f7dad2" stroke="transparent" points="361,-526.5 361,-546.5 572,-546.5 572,-526.5 361,-526.5"/>
<text text-anchor="start" x="363" y="-531.9" font-family="Times,serif" font-size="14.00" fill="#444444">source_river_station</text>
<polygon fill="#f7dad2" stroke="transparent" points="361,-506.5 361,-526.5 572,-526.5 572,-506.5 361,-506.5"/>
<text text-anchor="start" x="363" y="-511.9" font-family="Times,serif" font-size="14.00" fill="#444444">station_elevation_points</text>
<polygon fill="#f7dad2" stroke="transparent" points="361,-486.5 361,-506.5 572,-506.5 572,-486.5 361,-486.5"/>
<text text-anchor="start" x="363" y="-491.9" font-family="Times,serif" font-size="14.00" fill="#444444">bank_stations</text>
<polygon fill="#f7dad2" stroke="transparent" points="361,-466.5 361,-486.5 572,-486.5 572,-466.5 361,-466.5"/>
<text text-anchor="start" x="363" y="-471.9" font-family="Times,serif" font-size="14.00" fill="#444444">metdata_units</text>
<polygon fill="#f7dad2" stroke="transparent" points="361,-446.5 361,-466.5 572,-466.5 572,-446.5 361,-446.5"/>
<text text-anchor="start" x="363" y="-451.9" font-family="Times,serif" font-size="14.00" fill="#444444">epsg</text>
<polygon fill="#f7dad2" stroke="transparent" points="361,-426.5 361,-446.5 572,-446.5 572,-426.5 361,-426.5"/>
<text text-anchor="start" x="363" y="-431.9" font-family="Times,serif" font-size="14.00" fill="#444444">crs_units</text>
<polygon fill="#f7dad2" stroke="transparent" points="361,-406.5 361,-426.5 572,-426.5 572,-406.5 361,-406.5"/>
<text text-anchor="start" x="363" y="-411.9" font-family="Times,serif" font-size="14.00" fill="#444444">geom</text>
<polygon fill="none" stroke="#913115" stroke-opacity="0.666667" points="359.5,-406 359.5,-801 572.5,-801 572.5,-406 359.5,-406"/>
</g>
<!-- accounting.csv&#45;&gt;mip_xs -->
<g id="accounting.csv_2" class="edge">
<title>accounting.csv:source&#45;&gt;mip_xs:domain</title>
<path fill="none" stroke="#555555" stroke-dasharray="5,2" d="M292.5,-616.5C319.2578,-616.5 328.3774,-616.5 350.8635,-616.5"/>
<polygon fill="#555555" stroke="#555555" points="351,-620.0001 361,-616.5 351,-613.0001 351,-620.0001"/>
</g>
<!-- cs_pts -->
<g id="cs_pts" class="node">
<title>cs_pts</title>
<polygon fill="#196789" stroke="transparent" points="823.5,-852.5 823.5,-872.5 1064.5,-872.5 1064.5,-852.5 823.5,-852.5"/>
<text text-anchor="start" x="926.5028" y="-857.9" font-family="Times,serif" font-size="14.00" fill="#ffffff">cs_pts</text>
<polygon fill="#aec9d5" stroke="transparent" points="823.5,-839.5 823.5,-852.5 1064.5,-852.5 1064.5,-839.5 823.5,-839.5"/>
<text text-anchor="start" x="825.486" y="-843.3" font-family="Times,serif" font-size="8.00" fill="#000000">The Hydrofabric3D data model for station/elevation profile represntations</text>
<polygon fill="#d1e0e7" stroke="transparent" points="823.5,-819.5 823.5,-839.5 1064.5,-839.5 1064.5,-819.5 823.5,-819.5"/>
<text text-anchor="start" x="825.5" y="-824.9" font-family="Times,serif" font-size="14.00" fill="#444444">hy_id</text>
<polygon fill="#d1e0e7" stroke="transparent" points="823.5,-799.5 823.5,-819.5 1064.5,-819.5 1064.5,-799.5 823.5,-799.5"/>
<text text-anchor="start" x="825.5" y="-805.9" font-family="Times,serif" font-style="italic" font-size="14.00" fill="#444444">cs_id</text>
<polygon fill="#d1e0e7" stroke="transparent" points="823.5,-779.5 823.5,-799.5 1064.5,-799.5 1064.5,-779.5 823.5,-779.5"/>
<text text-anchor="start" x="825.5" y="-784.9" font-family="Times,serif" font-size="14.00" fill="#444444">pt_id</text>
<polygon fill="#d1e0e7" stroke="transparent" points="823.5,-759.5 823.5,-779.5 1064.5,-779.5 1064.5,-759.5 823.5,-759.5"/>
<text text-anchor="start" x="825.5" y="-764.9" font-family="Times,serif" font-size="14.00" fill="#444444">pt_measure</text>
<polygon fill="#d1e0e7" stroke="transparent" points="823.5,-739.5 823.5,-759.5 1064.5,-759.5 1064.5,-739.5 823.5,-739.5"/>
<text text-anchor="start" x="825.5" y="-744.9" font-family="Times,serif" font-size="14.00" fill="#444444">relative_dist</text>
<polygon fill="#d1e0e7" stroke="transparent" points="823.5,-719.5 823.5,-739.5 1064.5,-739.5 1064.5,-719.5 823.5,-719.5"/>
<text text-anchor="start" x="825.5" y="-724.9" font-family="Times,serif" font-size="14.00" fill="#444444">X</text>
<polygon fill="#d1e0e7" stroke="transparent" points="823.5,-699.5 823.5,-719.5 1064.5,-719.5 1064.5,-699.5 823.5,-699.5"/>
<text text-anchor="start" x="825.5" y="-704.9" font-family="Times,serif" font-size="14.00" fill="#444444">Y</text>
<polygon fill="#d1e0e7" stroke="transparent" points="823.5,-679.5 823.5,-699.5 1064.5,-699.5 1064.5,-679.5 823.5,-679.5"/>
<text text-anchor="start" x="825.5" y="-684.9" font-family="Times,serif" font-size="14.00" fill="#444444">Z</text>
<polygon fill="#d1e0e7" stroke="transparent" points="823.5,-659.5 823.5,-679.5 1064.5,-679.5 1064.5,-659.5 823.5,-659.5"/>
<text text-anchor="start" x="825.5" y="-664.9" font-family="Times,serif" font-size="14.00" fill="#444444">Z_source</text>
<polygon fill="#d1e0e7" stroke="transparent" points="823.5,-639.5 823.5,-659.5 1064.5,-659.5 1064.5,-639.5 823.5,-639.5"/>
<text text-anchor="start" x="825.5" y="-644.9" font-family="Times,serif" font-size="14.00" fill="#444444">roughness</text>
<polygon fill="none" stroke="#10445b" stroke-opacity="0.666667" points="822,-639 822,-874 1065,-874 1065,-639 822,-639"/>
</g>
<!-- transects -->
<g id="transects" class="node">
<title>transects</title>
<polygon fill="#196789" stroke="transparent" points="640.5,-872.5 640.5,-892.5 785.5,-892.5 785.5,-872.5 640.5,-872.5"/>
<text text-anchor="start" x="688.5126" y="-877.9" font-family="Times,serif" font-size="14.00" fill="#ffffff">transects</text>
<polygon fill="#aec9d5" stroke="transparent" points="640.5,-859.5 640.5,-872.5 785.5,-872.5 785.5,-859.5 640.5,-859.5"/>
<text text-anchor="start" x="642.0304" y="-863.3" font-family="Times,serif" font-size="8.00" fill="#000000">The Hydrofabric3D data model for transects</text>
<polygon fill="#d1e0e7" stroke="transparent" points="640.5,-839.5 640.5,-859.5 785.5,-859.5 785.5,-839.5 640.5,-839.5"/>
<text text-anchor="start" x="642.5" y="-845.9" font-family="Times,serif" font-style="italic" font-size="14.00" fill="#444444">hy_id</text>
<polygon fill="#d1e0e7" stroke="transparent" points="640.5,-819.5 640.5,-839.5 785.5,-839.5 785.5,-819.5 640.5,-819.5"/>
<text text-anchor="start" x="642.5" y="-824.9" font-family="Times,serif" font-size="14.00" fill="#444444">cs_source</text>
<polygon fill="#d1e0e7" stroke="transparent" points="640.5,-799.5 640.5,-819.5 785.5,-819.5 785.5,-799.5 640.5,-799.5"/>
<text text-anchor="start" x="642.5" y="-804.9" font-family="Times,serif" font-size="14.00" fill="#444444">cs_id</text>
<polygon fill="#d1e0e7" stroke="transparent" points="640.5,-779.5 640.5,-799.5 785.5,-799.5 785.5,-779.5 640.5,-779.5"/>
<text text-anchor="start" x="642.5" y="-784.9" font-family="Times,serif" font-size="14.00" fill="#444444">cs_measure</text>
<polygon fill="#d1e0e7" stroke="transparent" points="640.5,-759.5 640.5,-779.5 785.5,-779.5 785.5,-759.5 640.5,-759.5"/>
<text text-anchor="start" x="642.5" y="-764.9" font-family="Times,serif" font-size="14.00" fill="#444444">cs_length</text>
<polygon fill="#d1e0e7" stroke="transparent" points="640.5,-739.5 640.5,-759.5 785.5,-759.5 785.5,-739.5 640.5,-739.5"/>
<text text-anchor="start" x="642.5" y="-744.9" font-family="Times,serif" font-size="14.00" fill="#444444">geometry</text>
<polygon fill="none" stroke="#10445b" stroke-opacity="0.666667" points="639,-739 639,-894 786,-894 786,-739 639,-739"/>
</g>
<!-- flowlines&#45;&gt;transects -->
<g id="flowlines_1" class="edge">
<title>flowlines:hy_id&#45;&gt;transects:hy_id</title>
<path fill="none" stroke="#555555" stroke-dasharray="5,2" d="M602,-849.5C615.1007,-849.5 620.6787,-849.5 630.2532,-849.5"/>
<polygon fill="#555555" stroke="#555555" points="630.5,-853.0001 640.5,-849.5 630.5,-846.0001 630.5,-853.0001"/>
</g>
<!-- HEC_cs_pts -->
<g id="HEC_cs_pts" class="node">
<title>HEC_cs_pts</title>
<polygon fill="#179a54" stroke="transparent" points="413,-366.5 413,-386.5 519,-386.5 519,-366.5 413,-366.5"/>
<text text-anchor="start" x="431.0049" y="-371.9" font-family="Times,serif" font-size="14.00" fill="#ffffff">HEC_cs_pts</text>
<polygon fill="#addbc3" stroke="transparent" points="413,-353.5 413,-366.5 519,-366.5 519,-353.5 413,-353.5"/>
<text text-anchor="start" x="414.78" y="-357.3" font-family="Times,serif" font-size="8.00" fill="#000000">HEC&#45;RAS Cross Section Points</text>
<polygon fill="#d0eadc" stroke="transparent" points="413,-333.5 413,-353.5 519,-353.5 519,-333.5 413,-333.5"/>
<text text-anchor="start" x="415" y="-339.9" font-family="Times,serif" font-style="italic" font-size="14.00" fill="#444444">cs_id</text>
<polygon fill="#d0eadc" stroke="transparent" points="413,-313.5 413,-333.5 519,-333.5 519,-313.5 413,-313.5"/>
<text text-anchor="start" x="415" y="-318.9" font-family="Times,serif" font-size="14.00" fill="#444444">station</text>
<polygon fill="#d0eadc" stroke="transparent" points="413,-293.5 413,-313.5 519,-313.5 519,-293.5 413,-293.5"/>
<text text-anchor="start" x="415" y="-298.9" font-family="Times,serif" font-size="14.00" fill="#444444">elevation</text>
<polygon fill="#d0eadc" stroke="transparent" points="413,-273.5 413,-293.5 519,-293.5 519,-273.5 413,-273.5"/>
<text text-anchor="start" x="415" y="-278.9" font-family="Times,serif" font-size="14.00" fill="#444444">n</text>
<polygon fill="none" stroke="#0f6638" stroke-opacity="0.666667" points="412,-273 412,-388 520,-388 520,-273 412,-273"/>
</g>
<!-- HECRAS_cross_sections -->
<g id="HECRAS_cross_sections" class="node">
<title>HECRAS_cross_sections</title>
<polygon fill="#179a54" stroke="transparent" points="138.5,-406.5 138.5,-426.5 285.5,-426.5 285.5,-406.5 138.5,-406.5"/>
<text text-anchor="start" x="140.4572" y="-411.9" font-family="Times,serif" font-size="14.00" fill="#ffffff">HECRAS_cross_sections</text>
<polygon fill="#addbc3" stroke="transparent" points="138.5,-393.5 138.5,-406.5 285.5,-406.5 285.5,-393.5 138.5,-393.5"/>
<text text-anchor="start" x="163.896" y="-397.3" font-family="Times,serif" font-size="8.00" fill="#000000">HEC&#45;RAS Cross section lines</text>
<polygon fill="#d0eadc" stroke="transparent" points="138.5,-373.5 138.5,-393.5 285.5,-393.5 285.5,-373.5 138.5,-373.5"/>
<text text-anchor="start" x="140.5" y="-379.9" font-family="Times,serif" font-style="italic" font-size="14.00" fill="#444444">name</text>
<polygon fill="#d0eadc" stroke="transparent" points="138.5,-353.5 138.5,-373.5 285.5,-373.5 285.5,-353.5 138.5,-353.5"/>
<text text-anchor="start" x="140.5" y="-358.9" font-family="Times,serif" font-size="14.00" fill="#444444">measure</text>
<polygon fill="#d0eadc" stroke="transparent" points="138.5,-333.5 138.5,-353.5 285.5,-353.5 285.5,-333.5 138.5,-333.5"/>
<text text-anchor="start" x="140.5" y="-338.9" font-family="Times,serif" font-size="14.00" fill="#444444">cs_id</text>
<polygon fill="#d0eadc" stroke="transparent" points="138.5,-313.5 138.5,-333.5 285.5,-333.5 285.5,-313.5 138.5,-313.5"/>
<text text-anchor="start" x="140.5" y="-318.9" font-family="Times,serif" font-size="14.00" fill="#444444">cs_length</text>
<polygon fill="#d0eadc" stroke="transparent" points="138.5,-293.5 138.5,-313.5 285.5,-313.5 285.5,-293.5 138.5,-293.5"/>
<text text-anchor="start" x="140.5" y="-298.9" font-family="Times,serif" font-size="14.00" fill="#444444">geometry</text>
<polygon fill="none" stroke="#0f6638" stroke-opacity="0.666667" points="137,-293 137,-428 286,-428 286,-293 137,-293"/>
</g>
<!-- HECRAS_cross_sections&#45;&gt;HEC_cs_pts -->
<g id="HECRAS_cross_sections_2" class="edge">
<title>HECRAS_cross_sections:cs_id&#45;&gt;HEC_cs_pts:cs_id</title>
<path fill="none" stroke="#555555" stroke-dasharray="5,2" d="M285.5,-343.5C338.625,-343.5 354.3965,-343.5 402.8523,-343.5"/>
<polygon fill="#555555" stroke="#555555" points="403,-347.0001 413,-343.5 403,-340.0001 403,-347.0001"/>
</g>
<!-- point_database.parquet -->
<g id="point_database.parquet" class="node">
<title>point_database.parquet</title>
<polygon fill="#da7620" stroke="transparent" points="374,-233.5 374,-253.5 558,-253.5 558,-233.5 374,-233.5"/>
<text text-anchor="start" x="401.2724" y="-238.9" font-family="Times,serif" font-size="14.00" fill="#ffffff">point_database.parquet</text>
<polygon fill="#f2cfb0" stroke="transparent" points="374,-220.5 374,-233.5 558,-233.5 558,-220.5 374,-220.5"/>
<text text-anchor="start" x="375.7028" y="-224.3" font-family="Times,serif" font-size="8.00" fill="#000000">XYZ tables of each station/elevation across the database</text>
<polygon fill="#f7e3d2" stroke="transparent" points="374,-200.5 374,-220.5 558,-220.5 558,-200.5 374,-200.5"/>
<text text-anchor="start" x="376" y="-205.9" font-family="Times,serif" font-size="14.00" fill="#444444">xid</text>
<polygon fill="#f7e3d2" stroke="transparent" points="374,-180.5 374,-200.5 558,-200.5 558,-180.5 374,-180.5"/>
<text text-anchor="start" x="376" y="-185.9" font-family="Times,serif" font-size="14.00" fill="#444444">xid_length</text>
<polygon fill="#f7e3d2" stroke="transparent" points="374,-160.5 374,-180.5 558,-180.5 558,-160.5 374,-160.5"/>
<text text-anchor="start" x="376" y="-165.9" font-family="Times,serif" font-size="14.00" fill="#444444">xid_d</text>
<polygon fill="#f7e3d2" stroke="transparent" points="374,-140.5 374,-160.5 558,-160.5 558,-140.5 374,-140.5"/>
<text text-anchor="start" x="376" y="-145.9" font-family="Times,serif" font-size="14.00" fill="#444444">relative_dist</text>
<polygon fill="#f7e3d2" stroke="transparent" points="374,-120.5 374,-140.5 558,-140.5 558,-120.5 374,-120.5"/>
<text text-anchor="start" x="376" y="-125.9" font-family="Times,serif" font-size="14.00" fill="#444444">x</text>
<polygon fill="#f7e3d2" stroke="transparent" points="374,-100.5 374,-120.5 558,-120.5 558,-100.5 374,-100.5"/>
<text text-anchor="start" x="376" y="-105.9" font-family="Times,serif" font-size="14.00" fill="#444444">y</text>
<polygon fill="#f7e3d2" stroke="transparent" points="374,-80.5 374,-100.5 558,-100.5 558,-80.5 374,-80.5"/>
<text text-anchor="start" x="376" y="-85.9" font-family="Times,serif" font-size="14.00" fill="#444444">z</text>
<polygon fill="#f7e3d2" stroke="transparent" points="374,-60.5 374,-80.5 558,-80.5 558,-60.5 374,-60.5"/>
<text text-anchor="start" x="376" y="-65.9" font-family="Times,serif" font-size="14.00" fill="#444444">n</text>
<polygon fill="#f7e3d2" stroke="transparent" points="374,-40.5 374,-60.5 558,-60.5 558,-40.5 374,-40.5"/>
<text text-anchor="start" x="376" y="-45.9" font-family="Times,serif" font-size="14.00" fill="#444444">source</text>
<polygon fill="#f7e3d2" stroke="transparent" points="374,-20.5 374,-40.5 558,-40.5 558,-20.5 374,-20.5"/>
<text text-anchor="start" x="376" y="-26.9" font-family="Times,serif" font-style="italic" font-size="14.00" fill="#444444">master_id</text>
<polygon fill="none" stroke="#914e15" stroke-opacity="0.666667" points="373,-20 373,-255 559,-255 559,-20 373,-20"/>
</g>
<!-- HECRAS_cross_sections&#45;&gt;point_database.parquet -->
<g id="HECRAS_cross_sections_1" class="edge">
<title>HECRAS_cross_sections:geometry&#45;&gt;point_database.parquet:master_id</title>
<path fill="none" stroke="#555555" stroke-dasharray="5,2" d="M285.5,-303.5C345.6625,-303.5 314.3189,-60.55 364.1155,-33.0283"/>
<polygon fill="#555555" stroke="#555555" points="365.1792,-36.369 374,-30.5 363.4446,-29.5873 365.1792,-36.369"/>
</g>
<!-- HECRAS_river -->
<g id="HECRAS_river" class="node">
<title>HECRAS_river</title>
<polygon fill="#179a54" stroke="transparent" points="1,-482.5 1,-502.5 93,-502.5 93,-482.5 1,-482.5"/>
<text text-anchor="start" x="2.676" y="-487.9" font-family="Times,serif" font-size="14.00" fill="#ffffff">HECRAS_river</text>
<polygon fill="#addbc3" stroke="transparent" points="1,-469.5 1,-482.5 93,-482.5 93,-469.5 1,-469.5"/>
<text text-anchor="start" x="19.7848" y="-473.3" font-family="Times,serif" font-size="8.00" fill="#000000">HEC&#45;RAS rivers</text>
<polygon fill="#d0eadc" stroke="transparent" points="1,-449.5 1,-469.5 93,-469.5 93,-449.5 1,-449.5"/>
<text text-anchor="start" x="3" y="-454.9" font-family="Times,serif" font-size="14.00" fill="#444444">name</text>
<polygon fill="#d0eadc" stroke="transparent" points="1,-429.5 1,-449.5 93,-449.5 93,-429.5 1,-429.5"/>
<text text-anchor="start" x="3" y="-434.9" font-family="Times,serif" font-size="14.00" fill="#444444">geometry</text>
<polygon fill="none" stroke="#0f6638" stroke-opacity="0.666667" points="0,-429 0,-504 94,-504 94,-429 0,-429"/>
</g>
<!-- HECRAS_river&#45;&gt;accounting.csv -->
<g id="HECRAS_river_1" class="edge">
<title>HECRAS_river:name&#45;&gt;accounting.csv:final_name_key</title>
<path fill="none" stroke="#555555" stroke-dasharray="5,2" d="M93,-459.5C127.2262,-459.5 100.4103,-521.1143 121.7605,-534.1111"/>
<polygon fill="#555555" stroke="#555555" points="120.9541,-537.517 131.5,-536.5 122.6217,-530.7185 120.9541,-537.517"/>
</g>
<!-- HECRAS_river&#45;&gt;HECRAS_cross_sections -->
<g id="HECRAS_river_2" class="edge">
<title>HECRAS_river:name&#45;&gt;HECRAS_cross_sections:name</title>
<path fill="none" stroke="#555555" stroke-dasharray="5,2" d="M93,-459.5C128.3701,-459.5 105.1339,-398.1536 128.5996,-385.6926"/>
<polygon fill="#555555" stroke="#555555" points="129.4934,-389.0795 138.5,-383.5 127.9798,-382.2451 129.4934,-389.0795"/>
</g>
<!-- XS.fgb -->
<g id="XS.fgb" class="node">
<title>XS.fgb</title>
<polygon fill="#da7620" stroke="transparent" points="683.5,-53.5 683.5,-73.5 742.5,-73.5 742.5,-53.5 683.5,-53.5"/>
<text text-anchor="start" x="692.9751" y="-58.9" font-family="Times,serif" font-size="14.00" fill="#ffffff">XS.fgb</text>
<polygon fill="#f2cfb0" stroke="transparent" points="683.5,-40.5 683.5,-53.5 742.5,-53.5 742.5,-40.5 683.5,-40.5"/>
<text text-anchor="start" x="690.004" y="-44.3" font-family="Times,serif" font-size="8.00" fill="#000000">Cross sections</text>
<polygon fill="#f7e3d2" stroke="transparent" points="683.5,-20.5 683.5,-40.5 742.5,-40.5 742.5,-20.5 683.5,-20.5"/>
<text text-anchor="start" x="685.3969" y="-26.9" font-family="Times,serif" font-style="italic" font-size="14.00" fill="#444444">master_id</text>
<polygon fill="#f7e3d2" stroke="transparent" points="683.5,-.5 683.5,-20.5 742.5,-20.5 742.5,-.5 683.5,-.5"/>
<text text-anchor="start" x="685.5" y="-5.9" font-family="Times,serif" font-size="14.00" fill="#444444">geometry</text>
<polygon fill="none" stroke="#914e15" stroke-opacity="0.666667" points="682,0 682,-75 743,-75 743,0 682,0"/>
</g>
<!-- point_database.parquet&#45;&gt;XS.fgb -->
<g id="point_database.parquet_1" class="edge">
<title>point_database.parquet:master_id&#45;&gt;XS.fgb:master_id</title>
<path fill="none" stroke="#555555" stroke-dasharray="5,2" d="M558,-30.5C610.1827,-30.5 625.7509,-30.5 673.2138,-30.5"/>
<polygon fill="#555555" stroke="#555555" points="673.5,-34.0001 683.5,-30.5 673.5,-27.0001 673.5,-34.0001"/>
</g>
<!-- transects&#45;&gt;cs_pts -->
<g id="transects_1" class="edge">
<title>transects:cs_id&#45;&gt;cs_pts:cs_id</title>
<path fill="none" stroke="#555555" stroke-dasharray="5,2" d="M785.5,-809.5C798.4306,-809.5 803.9361,-809.5 813.3862,-809.5"/>
<polygon fill="#555555" stroke="#555555" points="813.5,-813.0001 823.5,-809.5 813.5,-806.0001 813.5,-813.0001"/>
</g>
</g>
</svg>

